<?xml version="1.0" encoding="utf-8"?>
<!-- Generator: Adobe Illustrator 19.0.0, SVG Export Plug-In . SVG Version: 6.00 Build 0)  -->
<svg xmlns="http://www.w3.org/2000/svg" xmlns:xlink="http://www.w3.org/1999/xlink" version="1.1" x="0px" y="0px" viewBox="0 0 1600 1200" style="enable-background:new 0 0 1600 1200;" xml:space="preserve">
<style type="text/css">
	.st0{fill:#FFFFFF;}
	.st1{fill:#F9D8AD;}
	.st2{fill:#096473;}
	.st3{fill:#272727;}
	.st4{fill:#008EA3;}
	.st5{fill:#1A1A1A;}
	.st6{fill:#BF2E63;}
	.st7{fill:#F23A7D;}
	.st8{fill:#FFC7BB;}
	.st9{fill:#D99282;}
	.st10{fill:#FFAC99;}
	.st11{fill:#CBCBCB;}
	.st12{fill:#FF5810;}
</style>
<g id="Layer_2">
	
	<circle id="XMLID_148_" class="st1" cx="911" cy="233" r="70"/>
	<circle id="XMLID_149_" class="st1" cx="1357.7" cy="352.3" r="32.3"/>
	<circle id="XMLID_150_" class="st1" cx="1018.9" cy="341.6" r="21.6"/>
	<circle id="XMLID_151_" class="st1" cx="1037.2" cy="947.5" r="29.6"/>
	<circle id="XMLID_152_" class="st1" cx="189.1" cy="229.1" r="50.1"/>
	<circle id="XMLID_154_" class="st1" cx="506.5" cy="108" r="27.5"/>
	<path id="XMLID_177_" class="st1" d="M506.5,218.4c-162.5,0-302.2,97.5-363.8,237.2c3.2,4.6,5.1,10.2,5.1,16.2   c0,13.2-9.1,24.3-21.3,27.4c-3.3,10.6-6.1,21.4-8.5,32.4c0.4,0,0.8,0,1.3,0c15.6,0,28.3,12.7,28.3,28.3c0,15.6-12.7,28.3-28.3,28.3   c-3.2,0-6.3-0.5-9.2-1.5c-0.7,9.6-1.1,19.3-1.1,29.1c0,2.4,0,4.8,0.1,7.3c3.1-1.2,6.6-1.9,10.1-1.9c15.6,0,28.3,12.7,28.3,28.3   c0,15.6-12.7,28.3-28.3,28.3c-1.9,0-3.7-0.2-5.5-0.5c29.5,190.3,194.1,336,392.7,336c219.5,0,397.4-177.9,397.4-397.4   S726,218.4,506.5,218.4z M207.3,677.8c-15.6,0-28.3-12.7-28.3-28.3c0-15.6,12.7-28.3,28.3-28.3c15.6,0,28.3,12.7,28.3,28.3   C235.6,665.1,222.9,677.8,207.3,677.8z M207.3,588.2c-15.6,0-28.3-12.7-28.3-28.3c0-15.6,12.7-28.3,28.3-28.3   c15.6,0,28.3,12.7,28.3,28.3C235.6,575.5,222.9,588.2,207.3,588.2z M207.5,500.1c-15.6,0-28.3-12.7-28.3-28.3s12.7-28.3,28.3-28.3   s28.3,12.7,28.3,28.3S223.2,500.1,207.5,500.1z M296.6,677.8c-15.6,0-28.3-12.7-28.3-28.3c0-15.6,12.7-28.3,28.3-28.3   c15.6,0,28.3,12.7,28.3,28.3C324.9,665.1,312.2,677.8,296.6,677.8z M296.6,588.2c-15.6,0-28.3-12.7-28.3-28.3   c0-15.6,12.7-28.3,28.3-28.3c15.6,0,28.3,12.7,28.3,28.3C324.9,575.5,312.2,588.2,296.6,588.2z M296.8,500.1   c-15.6,0-28.3-12.7-28.3-28.3s12.7-28.3,28.3-28.3c15.6,0,28.3,12.7,28.3,28.3S312.4,500.1,296.8,500.1z M384.1,673.7   c-15.6,0-28.3-12.7-28.3-28.3c0-15.6,12.7-28.3,28.3-28.3c15.6,0,28.3,12.7,28.3,28.3C412.4,661.1,399.7,673.7,384.1,673.7z    M384.1,584.1c-15.6,0-28.3-12.7-28.3-28.3c0-15.6,12.7-28.3,28.3-28.3c15.6,0,28.3,12.7,28.3,28.3   C412.4,571.5,399.7,584.1,384.1,584.1z M384.3,496c-15.6,0-28.3-12.7-28.3-28.3s12.7-28.3,28.3-28.3c15.6,0,28.3,12.7,28.3,28.3   S399.9,496,384.3,496z M472.1,673.7c-15.6,0-28.3-12.7-28.3-28.3c0-15.6,12.7-28.3,28.3-28.3c15.6,0,28.3,12.7,28.3,28.3   C500.4,661.1,487.8,673.7,472.1,673.7z M472.1,584.1c-15.6,0-28.3-12.7-28.3-28.3c0-15.6,12.7-28.3,28.3-28.3   c15.6,0,28.3,12.7,28.3,28.3C500.4,571.5,487.8,584.1,472.1,584.1z M472.3,496c-15.6,0-28.3-12.7-28.3-28.3s12.7-28.3,28.3-28.3   c15.6,0,28.3,12.7,28.3,28.3S488,496,472.3,496z M561.4,673.7c-15.6,0-28.3-12.7-28.3-28.3c0-15.6,12.7-28.3,28.3-28.3   c15.6,0,28.3,12.7,28.3,28.3C589.7,661.1,577,673.7,561.4,673.7z M561.4,584.1c-15.6,0-28.3-12.7-28.3-28.3   c0-15.6,12.7-28.3,28.3-28.3c15.6,0,28.3,12.7,28.3,28.3C589.7,571.5,577,584.1,561.4,584.1z M561.6,496   c-15.6,0-28.3-12.7-28.3-28.3s12.7-28.3,28.3-28.3c15.6,0,28.3,12.7,28.3,28.3S577.2,496,561.6,496z"/>
	<path id="XMLID_70_" class="st1" d="M1418.6,770c6.8-14.9,12.3-30.6,16.3-46.8c-12.1-3.2-20.9-14.2-20.9-27.3   c0-15.6,12.7-28.3,28.3-28.3c0.2,0,0.3,0,0.5,0c0.1-3.5,0.2-7,0.2-10.5c0-7.1-0.3-14.1-0.8-21.1c-15.5-0.2-28-12.8-28-28.3   c0-12,7.5-22.3,18.1-26.4c-32.8-113.7-137.7-196.8-261.9-196.8c-49.1,0-95.2,13-135,35.7c6.7,5.2,11.1,13.3,11.1,22.4   c0,15.6-12.7,28.3-28.3,28.3c-12.5,0-23.1-8.1-26.9-19.4c-18.5,16.2-34.9,34.8-48.5,55.4c9.3,4.7,15.6,14.2,15.6,25.3   c0,15.6-12.7,28.3-28.3,28.3c-4.9,0-9.5-1.2-13.5-3.4c-12.2,30.9-18.9,64.7-18.9,99.9c0,150.6,122,272.6,272.6,272.6   c107.5,0,200.5-62.3,244.9-152.7C1416.1,774.5,1417.2,772.2,1418.6,770z M1018.2,560.6c-15.6,0-28.3-12.7-28.3-28.3   c0-15.6,12.7-28.3,28.3-28.3c15.6,0,28.3,12.7,28.3,28.3C1046.5,548,1033.8,560.6,1018.2,560.6z M1107.4,560.6   c-15.6,0-28.3-12.7-28.3-28.3c0-15.6,12.7-28.3,28.3-28.3c15.6,0,28.3,12.7,28.3,28.3C1135.7,548,1123.1,560.6,1107.4,560.6z    M1107.4,471c-15.6,0-28.3-12.7-28.3-28.3c0-15.6,12.7-28.3,28.3-28.3c15.6,0,28.3,12.7,28.3,28.3   C1135.7,458.4,1123.1,471,1107.4,471z M1354.3,813.8c-15.6,0-28.3-12.7-28.3-28.3c0-15.6,12.7-28.3,28.3-28.3   c15.6,0,28.3,12.7,28.3,28.3C1382.6,801.1,1369.9,813.8,1354.3,813.8z M1354.3,724.2c-15.6,0-28.3-12.7-28.3-28.3   c0-15.6,12.7-28.3,28.3-28.3c15.6,0,28.3,12.7,28.3,28.3C1382.6,711.5,1369.9,724.2,1354.3,724.2z M1354.5,636.1   c-15.6,0-28.3-12.7-28.3-28.3c0-15.6,12.7-28.3,28.3-28.3s28.3,12.7,28.3,28.3C1382.8,623.4,1370.1,636.1,1354.5,636.1z"/>
</g>
<g id="Layer_1">
	<g id="XMLID_140_">
		<path id="XMLID_139_" class="st2" d="M327.8,929.6c0,0-9.6-144.7-79.8-204.7C248,724.9,279.9,902.3,327.8,929.6z"/>
		<path id="XMLID_138_" class="st2" d="M311.6,894.8c0,0,41.2-139-3.9-219.7C307.7,675.1,276,852.5,311.6,894.8z"/>
		<path id="XMLID_133_" class="st2" d="M324.4,893.8c0,0,17-111.9,75.7-153.9C400.1,739.9,363.5,875.8,324.4,893.8z"/>
		<polygon id="XMLID_137_" class="st3" points="309,881 248,881 274.7,1004.6 309,1004.6 343.3,1004.6 370,881   "/>
		<path id="XMLID_136_" class="st4" d="M315.4,895c0,0-7.3-192.8,77.4-281.9C392.8,613.1,375.1,852.3,315.4,895z"/>
		<polygon id="XMLID_132_" class="st0" points="323.9,881 262.9,881 289.7,1004.6 323.9,1004.6 358.2,1004.6 384.9,881   "/>
	</g>
	<g id="XMLID_125_">
		<g id="XMLID_63_">
			<path id="XMLID_89_" class="st5" d="M674,688.1l-0.7,0.2c-1.2,0.3-2.5-0.4-2.8-1.6l-4.2-15.4c-0.3-1.2,0.4-2.5,1.6-2.8l0.7-0.2     c1.2-0.3,2.5,0.4,2.8,1.6l4.2,15.4C676,686.5,675.2,687.8,674,688.1z"/>
			<path id="XMLID_86_" class="st0" d="M675.1,688.1l-0.7,0.2c-1.2,0.3-2.5-0.4-2.8-1.6l-4.2-15.4c-0.3-1.2,0.4-2.5,1.6-2.8l0.7-0.2     c1.2-0.3,2.5,0.4,2.8,1.6l4.2,15.4C677,686.5,676.3,687.8,675.1,688.1z"/>
			<path id="XMLID_30_" class="st0" d="M631.1,736.8l-354.9,23.9c-13.6,0.9-26.6,6.8-35.8,16.9c-7.9,8.7-13.7,21-8.7,36.8     c11.1,35.1,44.7,32.6,44.7,32.6L631.1,736.8z"/>
			<path id="XMLID_31_" class="st0" d="M764.6,545.7c0,0,45.6-2,45.6,24.5s-32.4,35.6-32.4,35.6L764.6,545.7z"/>
			<polygon id="XMLID_65_" class="st0" points="1043.8,773.1 1056.6,759 1050.2,750.8 1057.9,726.8 1065.5,730.9 1084.7,712.7      1075.3,766.8    "/>
			<path id="XMLID_56_" class="st6" d="M1059.9,803.4L911.8,936.9L778.2,824.7l-3.5-76.1l132.1,118.7l115.7-91.1     c8.3-6.6,19.3-9,29.5-6.1c6.5,1.8,12.5,5.7,14.4,13.7C1067.9,790.9,1065.3,798.4,1059.9,803.4z"/>
			<path id="XMLID_39_" class="st7" d="M795.1,992.7H644.6l-4.4-213.3l-356.7,66.9c-17.3,3.2-34.9-5.5-42.1-21.5     c-2.4-5.3-3.3-10.5-3.4-15.6c0-21.1,16.5-38.5,37.5-40.4l402.6-36.1h49.7l46.8,16.1L795.1,992.7z"/>
			<ellipse id="XMLID_29_" class="st6" cx="713.1" cy="744.9" rx="29.4" ry="24.3"/>
			<path id="XMLID_53_" class="st8" d="M733.9,652.4v88.6c0,11.3-9.3,20.6-20.6,20.6s-20.6-9.3-20.6-20.6v-88.6     c0-11.3,9.3-20.6,20.6-20.6c5.7,0,10.8,2.3,14.6,6.1C731.5,641.5,733.9,646.7,733.9,652.4z"/>
			<path id="XMLID_51_" class="st9" d="M733.9,699.2v41.7c-27.8-13.5-38.5-35.6-41.2-42.3c-0.5-1.3-0.7-2-0.7-2l0.7-4.8l1.3-8.3     L733.9,699.2z"/>
			<ellipse id="XMLID_26_" class="st4" cx="779.7" cy="647.3" rx="7.3" ry="25"/>
			<ellipse id="XMLID_25_" class="st0" cx="777.3" cy="648.4" rx="7.3" ry="25"/>
			<path id="XMLID_4_" class="st8" d="M778.1,588.1c0,0-1,61,0,82.8s-4.7,51.3-45.6,49.6s-66.7-57.6-70.7-118.3     C657.8,541.5,756.3,538.9,778.1,588.1z"/>
			<path id="XMLID_46_" class="st0" d="M770.9,679.5c0,0,1.2,34.7-39.4,25c-20.7-6.1-24.8-30.3-24.8-30.3S737.4,694.2,770.9,679.5z"/>
			<path id="XMLID_50_" class="st5" d="M742.4,624c-1.2,0.2-20.9-7.9-36.5,10.8c0,0,10.4-23.1,33.7-16.1c1.4,0.4,2.7,1.2,3.7,2.4     C744.4,622.3,744.9,623.7,742.4,624z"/>
			<path id="XMLID_49_" class="st5" d="M774.8,626.6c0,0-3.6-6.1-15.8-4.2c-1.1,0.2-1.9-0.9-1.5-1.9c0.3-0.7,0.8-1.4,1.6-1.7     C761.3,617.9,773.2,619.8,774.8,626.6z"/>
			<path id="XMLID_58_" class="st9" d="M777.3,602.9c0,0-50.4,14.9-89.7,0c0,0,1.9,11.8-10.3,26.2l-5.1,1.8l12.8-43.7L777.3,602.9z"/>
			<path id="XMLID_9_" class="st5" d="M666.7,637.1c0,0,20.3-19.9,18.3-40.6c0,0,76.7,26.1,105.9-2c29.2-28.1-12.4-58.3-46.9-46.2     c-16.4-2.7-50.6-20.4-70.7,2.3S656.8,618.5,666.7,637.1z"/>
			
				<ellipse id="XMLID_16_" transform="matrix(0.9666 -0.2563 0.2563 0.9666 -142.6872 191.6813)" class="st0" cx="664" cy="643.3" rx="17.4" ry="31"/>
			
				<ellipse id="XMLID_23_" transform="matrix(0.9666 -0.2563 0.2563 0.9666 -143.2076 190.3464)" class="st4" cx="658.7" cy="644.6" rx="17.4" ry="31"/>
			<path id="XMLID_28_" class="st0" d="M654.5,613.9c0,0,1.3-75.4,73.2-72.5c18.5,2,16.1,6.9,16.1,6.9s-71.1-3.7-70.7,79.7     C673.1,627.9,664.9,611.7,654.5,613.9z"/>
			<path id="XMLID_22_" class="st5" d="M684.9,596.5c0,0,28.9,26.3,78.1,17.5c0,0-52.6-1.5-75.3-25.9L684.9,596.5z"/>
			<ellipse id="XMLID_54_" class="st3" cx="1049.1" cy="780.9" rx="13.1" ry="12"/>
			<path id="XMLID_64_" class="st10" d="M1111.2,762.9c-1.2,0.9-3.2,2.3-5.6,4.1c-4.7,3.4-10.6,7.8-14.3,10.6     c-5.9,4.6-13.3,1.5-14.8,0.8c-0.2-0.1-0.3-0.2-0.5-0.3l-13.8-15.7l-8.8-10c-0.3-0.4-0.4-0.8-0.3-1.3l4.7-20     c0.2-0.9,1.3-1.4,2.1-0.9l4.3,2.5c0.6,0.3,1.3,0.2,1.8-0.3l1.7-1.8l10.1-10.7l0,0l6.7-7.1c0.6-0.7,1.7-0.6,2.2,0.1l9,12.3     c0.3,0.4,0.4,1,0.1,1.5l-1.5,3.2c-0.2,0.5-0.2,1,0.1,1.4l13.9,19.8c0.2,0.2,0.3,0.5,0.3,0.8c0,0.5-0.2,1-0.7,1.3     c-0.7,0.4-0.9,1.3-0.5,2l3.9,5.9C1112,761.6,1111.8,762.4,1111.2,762.9z"/>
			<path id="XMLID_48_" class="st10" d="M1044,787.3l-1.8-2c-2.9-3.3-2.7-8.4,0.6-11.3l19.9-17.8c3.3-2.9,8.4-2.7,11.3,0.6l1.8,2     c2.9,3.3,2.7,8.4-0.6,11.3l-19.9,17.8C1052,790.9,1046.9,790.6,1044,787.3z"/>
			<path id="XMLID_61_" class="st8" d="M1073.1,747.6l-4.4-2.4c0.7,0.6,12.1,10.6,10.4,13.9c-0.3,0.6-1.3,1.1-2.8,1.5     c-7.6,2.2-15.8-0.5-21-6.4l-1.7-2c-0.3-0.4-0.4-0.8-0.3-1.3l4.7-20c0.2-0.9,1.3-1.4,2.1-0.9l4.3,2.5c0.6,0.3,1.3,0.2,1.8-0.3     l1.7-1.8l19.6,16.5C1087.6,747,1083,752.3,1073.1,747.6z"/>
			<path id="XMLID_60_" class="st8" d="M1111.2,762.9c-1.2,0.9-3.2,2.3-5.6,4.1l-4,1.1l-12.8-19.1l2.8-3.6l-4,1.8l-15.3-16.2l5.8-11     l0,0l6.7-7.1c0.6-0.7,1.7-0.6,2.2,0.1l9,12.3c0.3,0.4,0.4,1,0.1,1.5l-1.5,3.2c-0.2,0.5-0.2,1,0.1,1.4l13.9,19.8     c0.2,0.2,0.3,0.5,0.3,0.8c0,0.5-0.2,1-0.7,1.3c-0.7,0.4-0.9,1.3-0.5,2l3.9,5.9C1112,761.6,1111.8,762.4,1111.2,762.9z"/>
			<ellipse id="XMLID_57_" class="st3" cx="262.9" cy="807" rx="20" ry="23.1"/>
			<ellipse id="XMLID_59_" class="st9" cx="727.5" cy="643.9" rx="15" ry="18.6"/>
			<ellipse id="XMLID_33_" class="st0" cx="729.7" cy="643.9" rx="15" ry="18.6"/>
			<ellipse id="XMLID_45_" class="st5" cx="733.9" cy="646.5" rx="8.6" ry="10.7"/>
			<ellipse id="XMLID_62_" class="st9" cx="763" cy="643.3" rx="11.2" ry="18.6"/>
			<ellipse id="XMLID_41_" class="st0" cx="764.6" cy="642.6" rx="11.2" ry="18.6"/>
			<ellipse id="XMLID_47_" class="st5" cx="764.6" cy="645.2" rx="6.3" ry="10.4"/>
			
				<ellipse id="XMLID_75_" transform="matrix(0.9666 -0.2563 0.2563 0.9666 -143.4961 189.315)" class="st2" cx="654.5" cy="645.2" rx="13.6" ry="24.2"/>
			<path id="XMLID_87_" class="st0" d="M642,654.7c-4.2-10.9-3.2-21.6,1.9-25.5c-0.5,0.1-0.9,0.2-1.3,0.4c-6.1,2.3-7.6,13-3.4,23.8     c2.6,6.8,6.9,12,11.2,14.4C647.1,664.6,644.1,660.1,642,654.7z"/>
			
				<ellipse id="XMLID_24_" transform="matrix(0.9666 -0.2563 0.2563 0.9666 -144.436 188.6285)" class="st5" cx="651.4" cy="648.4" rx="11.8" ry="21"/>
			<path id="XMLID_88_" class="st0" d="M665.9,645.3c-2.5-9.3-8.1-16.2-13.5-17.3c4.7,2.2,9.2,8.4,11.4,16.5     c2.9,11.1,0.3,21.4-5.9,23c-1.5,0.4-3.2,0.2-4.8-0.4c2.3,1.5,4.6,2.1,6.8,1.5C666.2,667,668.9,656.5,665.9,645.3z"/>
			
				<ellipse id="XMLID_84_" transform="matrix(0.9666 -0.2563 0.2563 0.9666 -142.3705 187.3638)" class="st0" cx="647.6" cy="639.9" rx="3.8" ry="6.8"/>
			
				<ellipse id="XMLID_85_" transform="matrix(0.9666 -0.2563 0.2563 0.9666 -144.9135 188.5114)" class="st0" cx="650.8" cy="650.2" rx="1.4" ry="2.4"/>
			<g id="XMLID_90_">
				<path id="XMLID_94_" class="st0" d="M673.7,685.5c-1.4,7.7-0.3,15.8-2.2,23.5c-1.3,5.4-4.4,9.7-9.7,11.7c-2.6,1-5.4,1.4-8.2,1.5      c-1.4,0.1-5.8,0.6-7-0.2c-2.1-0.6-3.3-2.5-3-3.7c0.3-1.4,2.6-2.7,5.1-1.7c1,1,1.9,2,2.9,3c0.9,1.3,1.4,3.2,1.8,4.8      c0.7,2.9,0.5,6.1-0.2,9c-1.3,6.3-4.8,11.8-8.7,16.8c-5.3,6.7-11.7,12.8-15.5,20.6c-3.4,6.9-4.6,14.8-3.6,22.4      c1.1,8.8,5.6,15.8,10,23.2c5.5,9.1,9.2,18.5,5.4,29.1c-3.7,10.5-12.5,18-22.5,22.1c-19.8,8.1-42.9,4.9-63.8,5.6      c-10,0.3-23.9-1.5-24.8-14.1c-0.5-7.6,6.5-11.7,13.3-8.5c5.7,2.8,9,8.4,10.4,14.5c4.7,21.3-12,40.1-16.2,60      c-1.5,7.1-3.4,17,0.4,23.7c2.8,4.9,8.2,7.2,13.5,7.9c4.7,0.6,9.5-0.2,14.2-1c3.1-0.5,7.3-2,10.4-1.4c4.7,0.9,6,6.2,5.8,10.4      c-0.4,8.3-2.5,17.6,2.7,24.9c10.5,14.7,35.3,13.7,49.9,7c0.5-0.2,0.1-1-0.4-0.8c-12.8,5.8-28.3,6.4-40.9-0.3      c-15.6-8.3-9-22.7-10.4-36.6c-0.9-8.9-11.1-5.1-17.2-4.1c-6.1,1.1-12.4,2-18.4-0.1c-9.6-3.3-10.7-12.2-9.9-21.1      c1.3-13.9,7.3-25.7,12.6-38.3c4-9.5,7.1-20.2,4.8-30.6c-1.7-7.5-6.9-15.7-15.3-16.4c-5.7-0.5-10.1,3.7-10.2,9.4      c-0.5,22,32.9,15.8,45.9,15.9c21.4,0.2,47.7,0.4,62-18.5c5-6.6,7.9-15.1,6.5-23.5c-1.8-10.4-9.4-18.4-13.6-27.7      c-6.1-13.4-3.7-28.4,4.9-40c6.4-8.8,15-16.1,18.7-26.6c2.1-5.8,3.4-21.2-6-22.2c-4.7-0.5-7.4,5.6-2.4,7.5      c3.8,1.4,10.2,0.7,14.2-0.1c3.9-0.8,7.5-2.6,10-5.8c6.6-8.4,3.8-21.2,5.6-31C674.7,685.2,673.8,684.9,673.7,685.5z"/>
			</g>
			<path id="XMLID_104_" class="st10" d="M209.1,787.7c0,0,49.4,45.3-20.7,71.2l-14.4-58.7L209.1,787.7z"/>
			<path id="XMLID_109_" class="st8" d="M157.1,835c0,0-2.9,6.8,3.4,14.8c0.9,1.1,2.4,1.6,3.7,1.1l29-8.7c3-0.9,5.3-3.6,5.4-6.7     c0-2.1-0.8-4.3-3.6-5.9c-2.3-1.3-5.1-1.5-7.7-1L157.1,835z"/>
			<path id="XMLID_110_" class="st8" d="M162.2,850.4c0,0-3.4,6.4,0.3,12.3c1.9,3,5.6,4.2,8.9,3l19.6-7.1c2.8-1,5.2-3.2,6.1-6.1     c1-3.2,0.3-7.2-7.7-9.3L162.2,850.4z"/>
			<path id="XMLID_111_" class="st10" d="M181.3,814.9l-61,12.2c-3.8,0.8-7.5-1.7-8.2-5.5l-0.5-2.3c-0.8-3.8,1.7-7.5,5.5-8.2     l61-12.2c3.8-0.8,7.5,1.7,8.2,5.5l0.5,2.3C187.5,810.5,185,814.2,181.3,814.9z"/>
			<path id="XMLID_108_" class="st8" d="M153.9,820.3c0,0-1.5,11.4,1.4,14.2c2.3,2.2,21.3-3.1,30-5.6c3.3-0.9,5.3-4.3,4.5-7.5     c-0.9-3.7-4.2-7.3-14.6-5.7C156.1,818.6,153.9,820.3,153.9,820.3z"/>
			<path id="XMLID_114_" class="st8" d="M208.8,788.8c0,0-5.8,31.4-30.4,15.9C153.8,789.2,157,770,162.1,770c5,0,8.9,14.6,16.6,15.6     S204.7,780.8,208.8,788.8z"/>
			<path id="XMLID_115_" class="st10" d="M262.8,824.8l-48.7,7.6c-7.7,1.2-14.9-4.1-16.1-11.8l-0.7-4.7c-1.2-7.7,4.1-14.9,11.8-16.1     l48.7-7.6c7.7-1.2,14.9,4.1,16.1,11.8l0.7,4.7C275.8,816.3,270.5,823.6,262.8,824.8z"/>
			<path id="XMLID_117_" class="st0" d="M222.6,798.5c3.1,4.3,8.3,14.4,5.5,31.2c-0.2,1.2,0.8,2.3,1.9,2.1l8.2-1.4     c0.8-0.1,1.4-0.9,1.4-1.8c-0.3-6-1.8-27.1-10.6-33.2c-0.3-0.2-0.7-0.3-1.1-0.2l-4.2,0.5C222.5,795.8,221.8,797.4,222.6,798.5z"/>
			<path id="XMLID_116_" class="st5" d="M218.1,798.6c3.5,4.4,9.2,14.7,6.2,31.9c-0.2,1.2,0.8,2.3,2.1,2.1l9.2-1.4     c0.9-0.1,1.6-1,1.6-1.9c-0.3-6.1-2-27.7-11.9-34c-0.3-0.2-0.8-0.3-1.2-0.3l-4.7,0.5C217.9,795.8,217.2,797.5,218.1,798.6z"/>
			
				<ellipse id="XMLID_118_" transform="matrix(0.9709 -0.2397 0.2397 0.9709 -187.9109 78.7612)" class="st0" cx="229.9" cy="812" rx="3.2" ry="5"/>
			
				<ellipse id="XMLID_119_" transform="matrix(0.9709 -0.2397 0.2397 0.9709 -187.9109 78.7612)" class="st5" cx="229.9" cy="812" rx="1.3" ry="2"/>
		</g>
		<g id="XMLID_124_">
			<polygon id="XMLID_68_" class="st0" points="1162.6,558.6 1167.9,557.1 1162.7,568.3 1158.4,569.5    "/>
			<g id="XMLID_101_">
				<path id="XMLID_122_" class="st0" d="M1297.8,955.3c-5.7-7.1-11.2-14.5-11-24.1c0.2-8.5,4.1-16.5,3.2-25.1      c-0.5-4.5-2-9-5.5-12.1c-5-4.5-11.9-4-18.2-3.7c-8.3,0.4-15.4-0.7-20.1-8.2c-3.5-5.7-4.7-12.7-4.9-19.3      c-0.5-16.2,3.1-32.3,3.4-48.4c0.1-6.9-0.1-14.9-1.8-22.5c9-2.6,17.3-7.9,22.6-15.5c7.1-10.2,6.7-22.9,0.6-33.5      c-7.4-12.9-20.5-20.5-33.8-26.1c-15.1-6.4-30.8-11.6-42.8-23.3c-6.6-6.3-14.8-15.3-9.2-24.8c4.1-6.9,12-11.1,19.2-14.3      c12.9-5.7,26.9-9.4,36.1-20.9c7.6-9.5,9.4-22.4,0.2-31.5c-20.6-20.5-56-6.2-78.2-23.7c1.9-3.2,3.6-6.6,5.1-10l-4.4,1.3      c-1,2.2-2.1,4.3-3.3,6.4c-1.4-1.3-2.7-2.8-3.8-4.4c-1.9-2.6-3.4-5.4-4.6-8.4c-3.4-8.8-3.7-19-0.5-27.8c1.3-3.6,3.6-8.7,6.7-11      c8.6-6.5,12.8,4,13.2,10.7c0.4,7.9-1,16.1-3.4,23.6l4-1.1c1.1-3.7,1.8-7.6,2.3-11.4c1.1-8.9,2-27-11.3-27.4      c-10.3-0.3-15.6,15.5-16.8,23.5c-1.1,7.4-0.2,15.1,2.4,22c1.1,3,2.6,5.8,4.4,8.5c0.1,0.2,0.2,0.3,0.3,0.4c1.6,2.3,3.3,4.3,5.2,6      c-16.1,25.7-44.5,42.1-73,52c-2.1,0.7-1.2,4.1,0.9,3.4c28-9.8,55.2-24.9,72.5-49.7c0.8-1.1,1.5-2.3,2.3-3.4      c18.1,13.9,45.6,8.4,66.5,16.3c8.3,3.2,16.5,9.5,16.5,19.2c0,8.3-5.8,15.6-12,20.6c-11.8,9.5-27.8,11.3-40.1,20      c-10.4,7.3-15.5,18-7.6,29.3c8.2,11.7,20.3,19.7,33.2,25.4c14.4,6.4,30.4,10.8,42.2,21.7c12.2,11.3,18.3,29,6.3,42.8      c-4.7,5.5-11.2,9.3-18.1,11.5c-0.2,0.1-0.4,0.1-0.6,0.2c-1.7-5.9-4.5-11.3-8.9-15.3c-6.5-5.9-18.4-6.4-19.5,4.5      c-1.3,12.4,12.1,16.7,22.1,15.6c1.2-0.1,2.5-0.3,3.7-0.6c1,4.5,1.5,9.1,1.7,13.4c1,18-3.1,35.7-3.3,53.7      c-0.1,11.1,2.2,25.4,12.7,31.5c6.1,3.5,12.9,2.5,19.6,2.3c5.6-0.1,11.5,0.6,14.5,6.1c2.1,3.9,2.3,8.6,1.9,12.9      c-0.9,8.5-4.5,16.7-2.6,25.4c1.6,7.7,6.7,14,11.5,20C1296.8,959.5,1299.2,957,1297.8,955.3z M1218.3,783.7      c-2.7-5.1-0.5-12.9,6.6-11.5c3.6,0.7,6.8,3.9,8.8,6.7c2.2,3,3.7,6.5,4.8,10.3C1231.3,790.7,1222,790.7,1218.3,783.7z"/>
			</g>
			
				<rect id="XMLID_78_" x="1043.9" y="592" transform="matrix(0.9837 0.1799 -0.1799 0.9837 129.4145 -178.4689)" class="st5" width="9.4" height="64.5"/>
			<path id="XMLID_66_" class="st2" d="M1029.3,662.6l32.5-8.2c1.2-0.3,1.9-1.5,1.6-2.7l-0.2-0.7c-0.3-1.2-1.5-1.9-2.7-1.6     l-32.5,8.2c-1.2,0.3-1.9,1.5-1.6,2.7l0.2,0.7C1026.9,662.2,1028.1,662.9,1029.3,662.6z"/>
			<path id="XMLID_69_" class="st11" d="M1045.1,665.1h-39c-3,0-5.5-2.5-5.5-5.5v-1.9c0-3,2.5-5.5,5.5-5.5h39c3,0,5.5,2.5,5.5,5.5     v1.9C1050.6,662.6,1048.2,665.1,1045.1,665.1z"/>
			<path id="XMLID_81_" class="st0" d="M1073.5,648.3l-126.1,28.3c-7.5,1.7-15.1-3.1-16.8-10.6l-0.1-0.6     c-1.7-7.5,3.1-15.1,10.6-16.8l126.1-28.2c7.5-1.7,15.1,3.1,16.8,10.6l0.1,0.6C1085.8,639.1,1081,646.6,1073.5,648.3z"/>
			<path id="XMLID_79_" class="st11" d="M1073.5,648.3l-126.1,28.3c-7.5,1.7-15.1-3.1-16.8-10.6l153.3-35l0.1,0.6     C1085.8,639.1,1081,646.6,1073.5,648.3z"/>
			<path id="XMLID_93_" class="st4" d="M1041,655.6l-37.2,8.3c5.4-3,8.5-9.5,7.1-16l-0.1-0.6c-1.4-6.6-7.1-11.1-13.4-11.3l37.4-8.4     c7.6-1.7,15.2,3.1,16.9,10.6l0,0.1l0.1,0.5C1053.4,646.4,1048.6,653.9,1041,655.6z"/>
			<rect id="XMLID_67_" x="1309.1" y="516.6" class="st4" width="9.4" height="488"/>
			<path id="XMLID_112_" class="st4" d="M1146.6,563.2l16-4.6c-0.2,0.5-0.3,1-0.5,1.4c-1.1,3.3-2.3,6.5-3.8,9.5l-7.2,2l-3.5,1     l-96,27.5l-2.6-9l94.1-27L1146.6,563.2z"/>
			<path id="XMLID_113_" class="st4" d="M1477.6,478l-314.9,90.3c1.5-3.5,2.8-7.1,3.8-10.8l308.5-88.5L1477.6,478z"/>
			<circle id="XMLID_76_" class="st0" cx="1313.8" cy="519.7" r="21.6"/>
			<circle id="XMLID_77_" class="st5" cx="1313.8" cy="519.7" r="11.7"/>
			<circle id="XMLID_82_" class="st0" cx="1053.4" cy="594.2" r="18.3"/>
			<circle id="XMLID_80_" class="st5" cx="1053.4" cy="594.2" r="9.9"/>
			<rect id="XMLID_83_" x="1256.5" y="954" class="st5" width="114.6" height="50.6"/>
			<path id="XMLID_91_" class="st2" d="M1041,655.6l-37.2,8.3c5.4-3,8.5-9.5,7.1-16l-0.1-0.6l40.8-9l0.1,0.5     C1053.4,646.4,1048.6,653.9,1041,655.6z"/>
			<circle id="XMLID_73_" class="st3" cx="1046.4" cy="659.2" r="5.9"/>
			<circle id="XMLID_74_" class="st0" cx="1046.4" cy="659.2" r="3"/>
			<rect id="XMLID_102_" x="1277.7" y="917.9" class="st5" width="72.2" height="36.2"/>
		</g>
		<g id="XMLID_123_">
			<polygon id="XMLID_40_" class="st0" points="779.5,1004.6 611,1004.6 618.7,986.2 787.2,986.2    "/>
			<polygon id="XMLID_38_" class="st0" points="993,1004.6 765.6,1004.6 830.7,842.8 1058.1,842.8    "/>
			<polygon id="XMLID_32_" class="st3" points="1002.8,1004.6 775.4,1004.6 840.5,842.8 1067.9,842.8    "/>
			<path id="XMLID_27_" class="st3" d="M1477.3,1019.5H117.8c-3.5,0-6.4-2.9-6.4-6.4v-2.2c0-3.5,2.9-6.4,6.4-6.4h1359.5     c3.5,0,6.4,2.9,6.4,6.4v2.2C1483.6,1016.6,1480.8,1019.5,1477.3,1019.5z"/>
			<g id="XMLID_97_">
				<path id="XMLID_95_" class="st2" d="M524.3,1004.6h-36.1c-0.6,0-1.1-0.5-1.1-1.1v-0.4c0-0.6,0.5-1.1,1.1-1.1h36.1      c0.6,0,1.1,0.5,1.1,1.1v0.4C525.4,1004.1,524.9,1004.6,524.3,1004.6z"/>
				<g id="XMLID_96_">
					<path id="XMLID_98_" class="st2" d="M552.1,997.7h-30.5v-42h30.5V997.7z M525,994.2h23.5v-35H525V994.2z"/>
				</g>
				<path id="XMLID_92_" class="st4" d="M525.9,1002.2H487c-4.5,0-8.2-3.7-8.2-8.2v-42.8h55.3V994      C534.1,998.5,530.5,1002.2,525.9,1002.2z"/>
			</g>
			<g id="XMLID_103_">
				<path id="XMLID_105_" class="st0" d="M1023.3,1002.5H793.4l66-164.2h229.9L1023.3,1002.5z M796.8,1000.1h224.9l64.2-159.5H861      L796.8,1000.1z"/>
			</g>
		</g>
	</g>
	<g id="XMLID_147_">
		<polygon id="XMLID_129_" class="st12" points="440.9,351.4 402.8,351.4 402.5,351.4 364.4,351.4 272,420.3 402.5,420.3     402.8,420.3 533.3,420.3   "/>
		<polygon id="XMLID_127_" class="st3" points="364.4,351.4 408.9,420.3 272,420.3   "/>
		<g id="XMLID_128_">
			<rect id="XMLID_142_" x="400.8" y="207" class="st3" width="4" height="144.4"/>
		</g>
		<polygon id="XMLID_131_" class="st12" points="847,351.4 808.9,351.4 808.7,351.4 770.6,351.4 678.1,420.3 808.7,420.3     808.9,420.3 939.4,420.3   "/>
		<polygon id="XMLID_130_" class="st3" points="770.6,351.4 815,420.3 678.1,420.3   "/>
		<g id="XMLID_126_">
			<rect id="XMLID_143_" x="806.9" y="207" class="st3" width="4" height="144.4"/>
		</g>
		<polygon id="XMLID_146_" class="st12" points="1235.6,351.4 1197.5,351.4 1197.2,351.4 1159.1,351.4 1066.7,420.3 1197.2,420.3     1197.5,420.3 1328,420.3   "/>
		<polygon id="XMLID_145_" class="st3" points="1159.1,351.4 1203.6,420.3 1066.7,420.3   "/>
		<g id="XMLID_141_">
			<rect id="XMLID_144_" x="1195.5" y="207" class="st3" width="4" height="144.4"/>
		</g>
	</g>
</g>
</svg>
