<?xml version="1.0" encoding="UTF-8"?>
<svg xmlns="http://www.w3.org/2000/svg" xmlns:xlink="http://www.w3.org/1999/xlink" width="2384" height="1684" viewBox="0 0 2384 1684">
<defs>
<clipPath id="clip-0">

</clipPath>
<clipPath id="clip-1">
<path clip-rule="nonzero" d="M 994.933594 1399.410156 L 982.757812 1407.148438 L 833.257812 1171.789062 L 845.433594 1164.058594 Z M 994.933594 1399.410156 "/>
</clipPath>
<clipPath id="clip-2">
<path clip-rule="nonzero" d="M 994.933594 1399.410156 L 982.757812 1407.148438 L 833.257812 1171.789062 L 845.433594 1164.058594 L 994.933594 1399.410156 "/>
</clipPath>
<linearGradient id="linear-pattern-0" gradientUnits="userSpaceOnUse" x1="-8.747873" y1="0" x2="9.747702" y2="0" gradientTransform="matrix(12.1768, -7.7349, 6.26066, 9.85593, 908.006, 1289.47)">
<stop offset="0" stop-color="rgb(100%, 100%, 100%)" stop-opacity="1"/>
<stop offset="0.25" stop-color="rgb(100%, 100%, 100%)" stop-opacity="1"/>
<stop offset="0.375" stop-color="rgb(100%, 100%, 100%)" stop-opacity="1"/>
<stop offset="0.4375" stop-color="rgb(100%, 100%, 100%)" stop-opacity="1"/>
<stop offset="0.46875" stop-color="rgb(100%, 100%, 100%)" stop-opacity="1"/>
<stop offset="0.472656" stop-color="rgb(97.134399%, 97.08252%, 97.094727%)" stop-opacity="1"/>
<stop offset="0.476562" stop-color="rgb(94.268799%, 94.165039%, 94.190979%)" stop-opacity="1"/>
<stop offset="0.480469" stop-color="rgb(88.035583%, 87.817383%, 87.872314%)" stop-opacity="1"/>
<stop offset="0.484375" stop-color="rgb(81.802368%, 81.471252%, 81.55365%)" stop-opacity="1"/>
<stop offset="0.488281" stop-color="rgb(75.569153%, 75.123596%, 75.234985%)" stop-opacity="1"/>
<stop offset="0.492188" stop-color="rgb(69.335938%, 68.777466%, 68.917847%)" stop-opacity="1"/>
<stop offset="0.496094" stop-color="rgb(63.102722%, 62.431335%, 62.599182%)" stop-opacity="1"/>
<stop offset="0.5" stop-color="rgb(56.869507%, 56.085205%, 56.280518%)" stop-opacity="1"/>
<stop offset="0.503906" stop-color="rgb(50.636292%, 49.737549%, 49.961853%)" stop-opacity="1"/>
<stop offset="0.507812" stop-color="rgb(44.403076%, 43.391418%, 43.644714%)" stop-opacity="1"/>
<stop offset="0.511719" stop-color="rgb(38.169861%, 37.045288%, 37.32605%)" stop-opacity="1"/>
<stop offset="0.515625" stop-color="rgb(31.936646%, 30.699158%, 31.008911%)" stop-opacity="1"/>
<stop offset="0.519531" stop-color="rgb(25.70343%, 24.351501%, 24.690247%)" stop-opacity="1"/>
<stop offset="0.523438" stop-color="rgb(19.470215%, 18.005371%, 18.371582%)" stop-opacity="1"/>
<stop offset="0.527344" stop-color="rgb(16.596985%, 15.080261%, 15.460205%)" stop-opacity="1"/>
<stop offset="0.53125" stop-color="rgb(13.725281%, 12.156677%, 12.548828%)" stop-opacity="1"/>
<stop offset="0.5625" stop-color="rgb(13.725281%, 12.156677%, 12.548828%)" stop-opacity="1"/>
<stop offset="0.625" stop-color="rgb(13.725281%, 12.156677%, 12.548828%)" stop-opacity="1"/>
<stop offset="0.75" stop-color="rgb(13.725281%, 12.156677%, 12.548828%)" stop-opacity="1"/>
<stop offset="1" stop-color="rgb(13.725281%, 12.156677%, 12.548828%)" stop-opacity="1"/>
</linearGradient>
</defs>
<path fill-rule="nonzero" fill="rgb(76.951599%, 91.40625%, 96.875%)" fill-opacity="1" d="M 2062.46875 441.589844 C 2160.828125 699.019531 1917.871094 1030.988281 1519.820312 1183.078125 C 1121.761719 1335.171875 719.339844 1249.769531 620.984375 992.34375 C 522.628906 734.914062 765.585938 402.941406 1163.640625 250.851562 C 1561.699219 98.769531 1964.121094 184.160156 2062.46875 441.589844 "/>
<path fill-rule="nonzero" fill="rgb(82.03125%, 82.8125%, 83.201599%)" fill-opacity="1" d="M 0 1684 L 288.429688 1381.078125 L 2249.570312 1371.839844 L 2384 1684 L 0 1684 "/>
<path fill-rule="nonzero" fill="rgb(73.631287%, 74.414062%, 75.389099%)" fill-opacity="1" d="M 226.320312 1503.839844 C 303.148438 1520.980469 379.972656 1538.128906 456.800781 1555.269531 C 469.078125 1558.011719 481.664062 1560.761719 494.140625 1559.140625 C 506.792969 1557.5 518.382812 1551.480469 530.03125 1546.269531 C 570.886719 1528.011719 615.230469 1518.949219 659.496094 1512.398438 C 789.945312 1493.101562 923.4375 1494.53125 1053.441406 1516.609375 C 1095.398438 1523.738281 1137.21875 1533.019531 1179.761719 1534.171875 C 1222.289062 1535.320312 1266.421875 1527.640625 1301.53125 1503.609375 C 1306.109375 1500.46875 1310.800781 1496.96875 1316.308594 1496.390625 C 1325.351562 1495.460938 1332.640625 1501.011719 1334.449219 1502.289062 C 1343.621094 1508.800781 1381.46875 1519.339844 1457.179688 1540.441406 C 1488.601562 1549.199219 1535.148438 1559.351562 1597.589844 1563.511719 C 1643.429688 1558.480469 1691.070312 1554.410156 1740.429688 1551.570312 C 1854.371094 1545.011719 1960.890625 1545.960938 2058.660156 1551.570312 C 2058.039062 1564.929688 2058.28125 1576.070312 2058.660156 1584.140625 C 2060.28125 1618.660156 2066 1630.167969 2067.808594 1633.589844 C 2067.808594 1633.589844 2072.980469 1643.390625 2080.710938 1651 C 2087.378906 1657.570312 2108.378906 1674.660156 2201.570312 1662.570312 C 2246.398438 1656.761719 2268.941406 1653.578125 2274.820312 1640.667969 C 2283.898438 1620.730469 2253.910156 1604.71875 2255.570312 1563.570312 C 2256.761719 1534.058594 2272.789062 1527.140625 2267.140625 1504.429688 C 2261.308594 1480.96875 2239 1467.398438 2228.640625 1461.089844 C 2201.851562 1444.789062 2175.078125 1443.488281 2168.820312 1443.160156 C 1963.289062 1432.488281 1758.230469 1413.230469 1553.570312 1391.570312 C 1425.558594 1378.019531 1276.730469 1376.421875 1134.648438 1380.488281 C 978.226562 1384.96875 830.328125 1374.609375 691.90625 1379.171875 C 516.636719 1381.148438 447.40625 1395.851562 421.878906 1411.910156 C 418.402344 1414.101562 402.574219 1424.429688 379.371094 1434.96875 C 360.394531 1443.589844 340.894531 1450.261719 318.78125 1456.140625 C 307.230469 1459.210938 295.085938 1460.238281 284.050781 1464.820312 C 273.011719 1469.398438 262.808594 1478.828125 262.082031 1490.761719 C 250.160156 1495.121094 238.242188 1499.480469 226.320312 1503.839844 "/>
<path fill-rule="nonzero" fill="rgb(80.859375%, 43.138123%, 63.084412%)" fill-opacity="1" d="M 1925.570312 1437.691406 C 1689.019531 1417.359375 1463.558594 1399.039062 1227 1378.710938 C 1207.988281 1334.289062 1177.871094 1287.851562 1158.859375 1243.429688 C 1121.289062 1279.289062 1083.710938 1315.140625 1046.140625 1351 C 1046.140625 1351 1016.261719 1380.890625 1003.921875 1403.691406 C 1003.039062 1405.308594 1002.25 1406.898438 1001.570312 1408.429688 C 994.929688 1423.378906 945.960938 1447.820312 895.289062 1436.621094 C 883.390625 1433.988281 858.179688 1428.421875 841.289062 1405 C 840.089844 1403.351562 821.460938 1376.691406 828.449219 1345.800781 C 830.53125 1336.589844 832.820312 1336.171875 851.570312 1304.710938 C 871.53125 1271.230469 870.648438 1268.828125 878.570312 1259.289062 C 886.410156 1249.839844 899.371094 1237.609375 921.140625 1227.691406 C 923.808594 1226.460938 926.621094 1225.28125 929.570312 1224.140625 C 929.570312 1224.140625 929.570312 1223.429688 929.570312 1222.230469 L 929.570312 1196.710938 C 929.570312 1191.121094 986.648438 1096.050781 1028.289062 1024.75 C 1050.480469 986.75 1068.289062 955.5 1070.71875 948.160156 C 1077.710938 927.03125 1305.570312 939.570312 1305.570312 939.570312 L 1359 931.910156 L 1533.738281 906.851562 C 1533.738281 906.851562 1576.769531 899.03125 1619.730469 893.480469 C 1638.800781 891.011719 1657.859375 888.988281 1673.140625 888.300781 C 1673.148438 888.300781 1673.160156 888.300781 1673.160156 888.300781 C 1679.078125 888.03125 1684.429688 887.960938 1689 888.140625 C 1699.179688 888.550781 1707.128906 888.960938 1714.121094 889.941406 C 1736.578125 893.070312 1749.128906 902.089844 1793.570312 935.878906 C 1801.949219 942.25 1810.871094 956.378906 1820.101562 977.308594 C 1848.949219 1042.628906 1881.019531 1174.191406 1910.109375 1342.730469 C 1915.371094 1373.230469 1920.539062 1404.941406 1925.570312 1437.691406 "/>
<path fill-rule="nonzero" fill="rgb(73.631287%, 39.988708%, 59.179688%)" fill-opacity="1" d="M 1820.101562 977.308594 C 1808.28125 976.808594 1796.449219 976.320312 1784.628906 975.828125 C 1774.28125 975.398438 1763.199219 974.71875 1754.949219 968.441406 C 1748.039062 963.191406 1744.308594 954.878906 1739.101562 947.941406 C 1727.820312 932.890625 1708.558594 924.210938 1689.808594 925.730469 C 1674.578125 926.960938 1660.640625 934.289062 1646.320312 939.621094 C 1633.5 944.390625 1583.171875 962.28125 1582.738281 939.980469 C 1582.5 928 1606.050781 902.578125 1619.730469 893.480469 C 1621.578125 892.238281 1623.238281 891.308594 1624.648438 890.75 C 1632.339844 887.671875 1640.859375 887.75 1649.140625 887.871094 C 1657.089844 887.980469 1665.101562 888.109375 1673.140625 888.300781 C 1673.148438 888.300781 1673.160156 888.300781 1673.160156 888.300781 C 1686.761719 888.621094 1700.460938 889.109375 1714.121094 889.941406 C 1736.578125 893.070312 1749.128906 902.089844 1793.570312 935.878906 C 1801.949219 942.25 1810.871094 956.378906 1820.101562 977.308594 "/>
<path fill-rule="nonzero" fill="rgb(73.631287%, 39.988708%, 59.179688%)" fill-opacity="1" d="M 1925.570312 1437.691406 C 1689.019531 1417.359375 1463.558594 1399.039062 1227 1378.710938 C 1207.988281 1334.289062 1177.871094 1287.851562 1158.859375 1243.429688 C 1121.289062 1279.289062 1083.710938 1315.140625 1046.140625 1351 C 1046.140625 1351 1016.261719 1380.890625 1003.921875 1403.691406 C 995.371094 1406.539062 986.640625 1408.828125 977.78125 1410.511719 C 997.441406 1388.328125 1017.089844 1366.148438 1036.738281 1343.980469 C 1040.691406 1339.519531 1044.789062 1334.761719 1045.890625 1328.910156 C 1047.230469 1321.71875 1043.730469 1314.558594 1039.921875 1308.308594 C 1013.78125 1265.46875 966.800781 1236.03125 916.839844 1231.210938 C 918.230469 1229.980469 919.660156 1228.800781 921.140625 1227.691406 C 923.820312 1225.660156 926.640625 1223.839844 929.570312 1222.230469 C 954.199219 1208.578125 986.410156 1209.199219 1012.03125 1221.851562 C 1042.371094 1236.820312 1063.890625 1266.128906 1075.390625 1297.941406 C 1095.820312 1277.199219 1116.238281 1256.460938 1136.660156 1235.71875 C 1098.988281 1210.730469 1082.300781 1158.308594 1098.601562 1116.140625 C 1073.589844 1120.238281 1049.21875 1101.71875 1038.5 1078.761719 C 1030.671875 1061.988281 1028.53125 1043.410156 1028.289062 1024.75 C 1050.480469 986.75 1068.289062 955.5 1070.71875 948.160156 C 1077.710938 927.03125 1305.570312 939.570312 1305.570312 939.570312 L 1359 931.910156 C 1354.671875 948.78125 1344.300781 967.351562 1334.070312 987.761719 C 1289.910156 1075.890625 1375.289062 1161.089844 1306.691406 1249.261719 C 1294.460938 1264.980469 1278.210938 1281.398438 1280.820312 1301.140625 C 1283.851562 1323.929688 1311.351562 1335.601562 1334.199219 1333.058594 C 1357.039062 1330.519531 1377.808594 1318.699219 1400.238281 1313.679688 C 1452.46875 1302 1504.621094 1327.941406 1555.898438 1343.238281 C 1670.039062 1377.300781 1791.140625 1358.820312 1910.109375 1342.730469 C 1915.371094 1373.230469 1920.539062 1404.941406 1925.570312 1437.691406 "/>
<path fill-rule="nonzero" fill="rgb(13.719177%, 12.156677%, 12.547302%)" fill-opacity="1" d="M 1323.960938 976.429688 C 1310.238281 994.488281 1293.96875 1005.511719 1282.289062 1012 C 1288.570312 1025.078125 1296.421875 1043.921875 1302.261719 1067.511719 C 1307.359375 1088.078125 1315.410156 1121.941406 1308.960938 1163.320312 C 1303.691406 1197.140625 1290.570312 1224.21875 1288.621094 1228.160156 C 1272.828125 1260.199219 1257.160156 1271.851562 1261.710938 1288.429688 C 1267.089844 1308 1294.199219 1310.949219 1292.570312 1319.289062 C 1292.171875 1321.351562 1290.078125 1323.359375 1286.871094 1325.070312 C 1275.011719 1331.460938 1247.789062 1333.929688 1233.429688 1320.570312 C 1221.589844 1309.558594 1228.640625 1297.230469 1218 1279.429688 C 1205.171875 1257.960938 1186.699219 1262.148438 1158.859375 1243.429688 C 1153.648438 1239.929688 1112.519531 1211.398438 1103.570312 1162.429688 C 1101.578125 1151.550781 1098.710938 1126.121094 1112.570312 1094.289062 C 1103.46875 1092.53125 1073.78125 1085.660156 1061.609375 1061.25 C 1056.789062 1051.589844 1056.859375 1041.960938 1057.191406 1023.109375 C 1057.5 1005.578125 1058.210938 979.449219 1070.71875 948.160156 C 1078.878906 927.738281 1089.558594 911.378906 1099.710938 898.859375 C 1095.730469 891.679688 1090.628906 879.980469 1090.710938 865.429688 C 1090.828125 845.171875 1100.929688 830.710938 1113.859375 812.710938 C 1126.308594 795.378906 1134.511719 789.210938 1161.429688 761.289062 C 1174.808594 747.398438 1185.46875 735.761719 1192.390625 728.089844 C 1189.039062 720.671875 1178.070312 693.949219 1188.308594 664.070312 C 1199.179688 632.308594 1226.628906 618.480469 1240.640625 611.421875 C 1255.488281 603.929688 1257.75 602.308594 1320.390625 600.941406 C 1323.621094 600.871094 1327.199219 600.929688 1329.589844 603.109375 C 1331.988281 605.300781 1332.359375 608.878906 1332.570312 612.128906 C 1336.71875 676.191406 1340.878906 740.238281 1345.039062 804.308594 C 1345.351562 809.050781 1345.648438 813.800781 1345.960938 818.539062 C 1352.628906 921.289062 1347.039062 946.019531 1323.960938 976.429688 "/>
<path fill-rule="nonzero" fill="rgb(8.616638%, 7.835388%, 7.835388%)" fill-opacity="1" d="M 1323.960938 976.429688 C 1310.238281 994.488281 1293.96875 1005.511719 1282.289062 1012 C 1288.570312 1025.078125 1296.421875 1043.921875 1302.261719 1067.511719 C 1307.359375 1088.078125 1315.410156 1121.941406 1308.960938 1163.320312 C 1303.691406 1197.140625 1290.570312 1224.21875 1288.621094 1228.160156 C 1272.828125 1260.199219 1257.160156 1271.851562 1261.710938 1288.429688 C 1267.089844 1308 1294.199219 1310.949219 1292.570312 1319.289062 C 1292.171875 1321.351562 1290.078125 1323.359375 1286.871094 1325.070312 C 1279.441406 1323.871094 1272.261719 1321.808594 1265.898438 1317.859375 C 1254.179688 1310.601562 1246.800781 1297.738281 1243.371094 1284.398438 C 1239.949219 1271.050781 1240.050781 1257.070312 1240.398438 1243.300781 C 1240.710938 1231.019531 1241.21875 1218.628906 1244.410156 1206.769531 C 1249.609375 1187.5 1261.601562 1170.710938 1267.699219 1151.710938 C 1274.671875 1130.011719 1273.460938 1105.800781 1264.371094 1084.898438 C 1250.710938 1053.488281 1219.640625 1027.148438 1222.390625 993.019531 C 1223.199219 982.960938 1227.03125 973.421875 1228.941406 963.511719 C 1230.859375 953.609375 1230.519531 942.410156 1224.070312 934.660156 C 1220.171875 929.96875 1214.53125 927.140625 1209 924.558594 C 1197.199219 919.058594 1185.121094 914.128906 1172.828125 909.800781 C 1185.621094 911.589844 1198.550781 912.339844 1211.460938 912.039062 C 1216.160156 911.929688 1221.03125 911.640625 1225.238281 909.53125 C 1230.691406 906.789062 1234.261719 901.429688 1237.351562 896.171875 C 1259.199219 859.050781 1269.339844 778.070312 1334.191406 799.390625 C 1338.019531 800.648438 1341.640625 802.308594 1345.039062 804.308594 C 1345.351562 809.050781 1345.648438 813.800781 1345.960938 818.539062 C 1352.628906 921.289062 1347.039062 946.019531 1323.960938 976.429688 "/>
<path fill-rule="nonzero" fill="rgb(94.53125%, 35.301208%, 16.088867%)" fill-opacity="1" d="M 1302 704.929688 C 1302 744.8125 1276.800781 777.144531 1245.71875 777.144531 C 1214.628906 777.144531 1189.441406 744.8125 1189.441406 704.929688 C 1189.441406 665.050781 1214.628906 632.710938 1245.71875 632.710938 C 1276.800781 632.710938 1302 665.050781 1302 704.929688 "/>
<path fill-rule="nonzero" fill="rgb(100%, 74.021912%, 65.039062%)" fill-opacity="1" d="M 1332.429688 872.714844 C 1330.710938 877.855469 1341.859375 931.230469 1341.859375 931.230469 C 1353.691406 940.292969 1376.128906 955.027344 1407.859375 961.855469 C 1424.019531 965.335938 1459.679688 973.007812 1494 956.714844 C 1494 956.714844 1504.300781 951.824219 1553.570312 906.847656 C 1553.570312 906.847656 1513.289062 890.144531 1503.859375 842 C 1494.429688 793.855469 1503.859375 761.882812 1503.859375 761.882812 L 1332.429688 872.714844 "/>
<path fill-rule="nonzero" fill="rgb(93.75%, 67.381287%, 60.351562%)" fill-opacity="1" d="M 1492.410156 760.285156 C 1492.410156 760.285156 1480.480469 925.285156 1344.429688 932.800781 L 1334.140625 890.429688 L 1492.410156 760.285156 "/>
<path fill-rule="nonzero" fill="rgb(100%, 74.021912%, 65.039062%)" fill-opacity="1" d="M 1207.289062 617.289062 C 1208.851562 624.53125 1210.910156 635.320312 1212.429688 648.570312 C 1213.960938 661.988281 1213.890625 668.78125 1214.539062 675.441406 C 1215.71875 687.585938 1219.820312 704.648438 1233 725.285156 C 1233.878906 736.351562 1236.011719 751.957031 1241.570312 769.855469 C 1249 793.773438 1258.910156 809.269531 1278.429688 839.285156 C 1309.628906 887.269531 1323.949219 896.992188 1335 901.855469 C 1350.421875 908.640625 1361.238281 906.738281 1364.140625 906.144531 C 1375.011719 903.902344 1382.378906 897.683594 1385.96875 894.160156 C 1408.949219 881.183594 1443.601562 857.433594 1473 817 C 1487.359375 797.246094 1497.128906 778.097656 1503.859375 761.882812 C 1497 717.683594 1490.140625 673.480469 1483.289062 629.289062 C 1459.109375 619.460938 1438.46875 613.398438 1423.289062 609.570312 C 1400.070312 603.71875 1390.628906 603.339844 1377 596.710938 C 1356.199219 586.609375 1342.121094 569.960938 1332.429688 553.859375 C 1322.640625 570.269531 1311.800781 578.539062 1304.140625 583 C 1284.5 594.441406 1269.46875 590.339844 1241.351562 600.238281 C 1225.828125 605.710938 1214.21875 612.671875 1207.289062 617.289062 "/>
<path fill-rule="nonzero" fill="rgb(13.719177%, 12.156677%, 12.547302%)" fill-opacity="1" d="M 1261.949219 688.761719 C 1261.949219 688.761719 1216.351562 683.539062 1212.78125 686.289062 C 1212.78125 686.289062 1207.808594 681.429688 1214.5 678.640625 C 1221.191406 675.839844 1249.71875 673.921875 1257.871094 677.488281 C 1266.019531 681.070312 1261.949219 688.761719 1261.949219 688.761719 "/>
<path fill-rule="nonzero" fill="rgb(13.719177%, 12.156677%, 12.547302%)" fill-opacity="1" d="M 1339.289062 679.289062 C 1338.398438 679.441406 1345.859375 665 1360.710938 664.140625 C 1375.570312 663.289062 1413.859375 672.429688 1416.710938 677 L 1416.710938 681.289062 C 1416.710938 681.289062 1363.289062 675 1339.289062 679.289062 "/>
<path fill="none" stroke-width="20" stroke-linecap="butt" stroke-linejoin="miter" stroke="rgb(13.719177%, 12.156677%, 12.547302%)" stroke-opacity="1" stroke-miterlimit="10" d="M 13350 10113.085938 C 13350 10113.085938 13318.59375 10018.59375 13350 9998.554688 " transform="matrix(0.1, 0, 0, -0.1, 0, 1684)"/>
<path fill="none" stroke-width="20" stroke-linecap="butt" stroke-linejoin="miter" stroke="rgb(13.719177%, 12.156677%, 12.547302%)" stroke-opacity="1" stroke-miterlimit="10" d="M 13303.789062 10113.085938 C 13303.789062 10113.085938 13272.382812 10018.59375 13303.789062 9998.554688 " transform="matrix(0.1, 0, 0, -0.1, 0, 1684)"/>
<path fill="none" stroke-width="10" stroke-linecap="butt" stroke-linejoin="miter" stroke="rgb(13.719177%, 12.156677%, 12.547302%)" stroke-opacity="1" stroke-miterlimit="10" d="M 12624.882812 10074.414062 C 12629.414062 10073.710938 12666.210938 10067.5 12685.703125 10032.8125 C 12707.5 9994.023438 12687.890625 9955.117188 12686.484375 9952.382812 " transform="matrix(0.1, 0, 0, -0.1, 0, 1684)"/>
<path fill-rule="nonzero" fill="rgb(85.9375%, 47.459412%, 39.598083%)" fill-opacity="1" d="M 1279.859375 686.714844 C 1278.058594 685.042969 1308.140625 719 1295.859375 745.570312 C 1283.570312 772.144531 1275.570312 768.714844 1281 781.285156 C 1286.429688 793.855469 1305.570312 805 1305.570312 805 C 1305.570312 805 1284.710938 775 1287.570312 770.714844 C 1290.429688 766.429688 1324.140625 727.855469 1279.859375 686.714844 "/>
<path fill-rule="nonzero" fill="rgb(13.719177%, 12.156677%, 12.547302%)" fill-opacity="1" d="M 1336.429688 718.429688 C 1342 718.984375 1347.480469 719.199219 1352.941406 719.109375 C 1358.378906 718.964844 1363.789062 718.523438 1369.070312 717.507812 C 1374.359375 716.527344 1379.539062 715.007812 1384.488281 712.882812 C 1389.480469 710.789062 1394.128906 707.945312 1398.710938 704.714844 C 1395.289062 709.144531 1390.878906 712.929688 1385.878906 715.679688 C 1383.421875 717.128906 1380.78125 718.261719 1378.078125 719.226562 C 1375.390625 720.199219 1372.609375 720.90625 1369.808594 721.4375 C 1364.199219 722.5 1358.460938 722.714844 1352.828125 722.21875 C 1347.210938 721.714844 1341.621094 720.597656 1336.429688 718.429688 "/>
<path fill-rule="nonzero" fill="rgb(13.719177%, 12.156677%, 12.547302%)" fill-opacity="1" d="M 1329.640625 730.351562 C 1330.839844 729.546875 1332.109375 728.851562 1333.261719 728.003906 C 1334.421875 727.179688 1335.53125 726.289062 1336.511719 725.300781 C 1337.480469 724.308594 1338.371094 723.253906 1339.03125 722.105469 C 1339.671875 720.953125 1340.089844 719.738281 1340.261719 718.535156 L 1343.191406 719.179688 C 1342.679688 720.773438 1341.859375 722.191406 1340.859375 723.402344 C 1339.859375 724.609375 1338.679688 725.585938 1337.46875 726.453125 C 1336.25 727.316406 1334.960938 728.027344 1333.640625 728.652344 C 1332.328125 729.300781 1330.949219 729.769531 1329.640625 730.351562 "/>
<path fill-rule="nonzero" fill="rgb(13.719177%, 12.156677%, 12.547302%)" fill-opacity="1" d="M 1335.691406 732.21875 C 1336.890625 731.414062 1338.148438 730.71875 1339.300781 729.875 C 1340.460938 729.050781 1341.570312 728.15625 1342.550781 727.167969 C 1343.53125 726.179688 1344.421875 725.121094 1345.070312 723.972656 C 1345.71875 722.820312 1346.140625 721.609375 1346.308594 720.402344 L 1349.238281 721.046875 C 1348.71875 722.644531 1347.898438 724.0625 1346.910156 725.273438 C 1345.898438 726.480469 1344.730469 727.453125 1343.511719 728.320312 C 1342.289062 729.183594 1341 729.894531 1339.679688 730.519531 C 1338.371094 731.167969 1337 731.640625 1335.691406 732.21875 "/>
<path fill-rule="nonzero" fill="rgb(13.719177%, 12.156677%, 12.547302%)" fill-opacity="1" d="M 1351.5 733.105469 C 1352.019531 732.105469 1352.601562 731.148438 1353.011719 730.117188 C 1353.441406 729.101562 1353.789062 728.058594 1354.050781 727 C 1354.300781 725.941406 1354.5 724.878906 1354.578125 723.808594 C 1354.691406 722.742188 1354.699219 721.667969 1354.671875 720.605469 L 1357.671875 720.84375 C 1357.429688 722.011719 1357.160156 723.160156 1356.78125 724.277344 C 1356.429688 725.398438 1355.960938 726.480469 1355.449219 727.523438 C 1354.941406 728.566406 1354.328125 729.558594 1353.671875 730.488281 C 1353.011719 731.429688 1352.21875 732.257812 1351.5 733.105469 "/>
<path fill-rule="nonzero" fill="rgb(13.719177%, 12.156677%, 12.547302%)" fill-opacity="1" d="M 1362.929688 733.070312 C 1363.28125 730.984375 1363.539062 728.894531 1363.699219 726.808594 C 1363.789062 725.769531 1363.820312 724.722656 1363.828125 723.679688 L 1363.890625 720.570312 L 1366.871094 720.882812 L 1366.050781 724.015625 C 1365.789062 725.054688 1365.511719 726.085938 1365.171875 727.101562 C 1364.511719 729.136719 1363.761719 731.128906 1362.929688 733.070312 "/>
<path fill-rule="nonzero" fill="rgb(13.719177%, 12.156677%, 12.547302%)" fill-opacity="1" d="M 1374 731.5 L 1373.058594 725.375 C 1372.929688 724.359375 1372.679688 723.351562 1372.488281 722.34375 L 1371.878906 719.332031 L 1374.871094 719.046875 L 1374.730469 722.183594 C 1374.671875 723.222656 1374.671875 724.261719 1374.558594 725.300781 L 1374 731.5 "/>
<path fill-rule="nonzero" fill="rgb(13.719177%, 12.156677%, 12.547302%)" fill-opacity="1" d="M 1379.960938 729.277344 L 1379.03125 723.152344 C 1378.890625 722.136719 1378.640625 721.128906 1378.449219 720.121094 L 1377.851562 717.109375 L 1380.839844 716.824219 L 1380.699219 719.957031 C 1380.640625 721 1380.640625 722.035156 1380.519531 723.078125 L 1379.960938 729.277344 "/>
<path fill-rule="nonzero" fill="rgb(89.84375%, 61.521912%, 53.709412%)" fill-opacity="1" d="M 1338.179688 710.824219 C 1340.390625 709.269531 1342.828125 708.1875 1345.328125 707.339844 C 1347.828125 706.503906 1350.421875 705.933594 1353.039062 705.617188 C 1355.648438 705.296875 1358.300781 705.234375 1360.929688 705.449219 C 1363.558594 705.675781 1366.179688 706.148438 1368.710938 707.132812 C 1366.089844 707.8125 1363.550781 708.207031 1361.03125 708.589844 C 1358.511719 708.960938 1356.011719 709.289062 1353.511719 709.585938 C 1351.019531 709.886719 1348.511719 710.164062 1345.980469 710.402344 C 1343.441406 710.628906 1340.878906 710.851562 1338.179688 710.824219 "/>
<path fill-rule="nonzero" fill="rgb(89.84375%, 61.521912%, 53.709412%)" fill-opacity="1" d="M 1355.339844 698.253906 C 1355.78125 697.558594 1356.390625 697.074219 1357.039062 696.6875 C 1357.699219 696.308594 1358.421875 696.046875 1359.160156 695.910156 C 1359.898438 695.769531 1360.671875 695.753906 1361.421875 695.867188 C 1362.171875 695.996094 1362.910156 696.234375 1363.570312 696.726562 C 1362.820312 697.066406 1362.148438 697.257812 1361.480469 697.441406 C 1360.820312 697.613281 1360.179688 697.757812 1359.53125 697.875 C 1358.878906 697.992188 1358.230469 698.09375 1357.550781 698.167969 C 1356.859375 698.234375 1356.160156 698.304688 1355.339844 698.253906 "/>
<path fill-rule="nonzero" fill="rgb(89.84375%, 61.521912%, 53.709412%)" fill-opacity="1" d="M 1343.960938 738.335938 C 1345.878906 738.289062 1347.738281 738.375 1349.601562 738.476562 C 1351.460938 738.578125 1353.300781 738.691406 1355.140625 738.828125 C 1356.988281 738.957031 1358.828125 739.113281 1360.679688 739.28125 C 1362.539062 739.453125 1364.390625 739.636719 1366.28125 739.964844 C 1364.429688 740.46875 1362.550781 740.722656 1360.660156 740.84375 C 1358.78125 740.964844 1356.878906 740.964844 1355 740.820312 C 1353.109375 740.6875 1351.238281 740.414062 1349.390625 740.019531 C 1347.539062 739.621094 1345.71875 739.101562 1343.960938 738.335938 "/>
<path fill-rule="nonzero" fill="rgb(13.719177%, 12.156677%, 12.547302%)" fill-opacity="1" d="M 1233.070312 726.136719 C 1237.148438 726.03125 1241.128906 726.046875 1245.089844 726.003906 C 1249.058594 725.976562 1252.988281 725.898438 1256.921875 725.765625 C 1260.851562 725.660156 1264.75 725.363281 1268.671875 725.050781 C 1272.609375 724.753906 1276.488281 724.15625 1280.570312 723.714844 C 1277.039062 725.746094 1273.160156 727.210938 1269.191406 728.15625 C 1265.210938 729.070312 1261.128906 729.660156 1257.058594 729.761719 C 1252.980469 729.894531 1248.910156 729.695312 1244.878906 729.132812 C 1240.859375 728.53125 1236.871094 727.671875 1233.070312 726.136719 "/>
<path fill-rule="nonzero" fill="rgb(89.84375%, 61.521912%, 53.709412%)" fill-opacity="1" d="M 1260.890625 715.898438 C 1259.078125 716.113281 1257.460938 716.082031 1255.871094 716.046875 C 1254.289062 715.992188 1252.75 715.898438 1251.21875 715.777344 C 1249.691406 715.648438 1248.160156 715.496094 1246.589844 715.28125 C 1245.019531 715.058594 1243.410156 714.820312 1241.660156 714.304688 C 1243.101562 713.179688 1244.738281 712.539062 1246.421875 712.144531 C 1248.101562 711.761719 1249.839844 711.640625 1251.550781 711.789062 C 1253.261719 711.933594 1254.960938 712.328125 1256.550781 712.984375 C 1258.140625 713.65625 1259.648438 714.554688 1260.890625 715.898438 "/>
<path fill-rule="nonzero" fill="rgb(13.719177%, 12.156677%, 12.547302%)" fill-opacity="1" d="M 1242.808594 727.984375 C 1241.070312 730.40625 1238.730469 732.261719 1236.148438 733.355469 C 1233.570312 734.457031 1230.789062 734.785156 1228.199219 734.410156 C 1230.800781 734.117188 1233.230469 733.121094 1235.160156 731.621094 C 1237.089844 730.132812 1238.519531 728.144531 1239.320312 726.035156 L 1242.808594 727.984375 "/>
<path fill-rule="nonzero" fill="rgb(13.719177%, 12.156677%, 12.547302%)" fill-opacity="1" d="M 1251.671875 728.285156 C 1251.179688 729.675781 1250.488281 730.917969 1249.640625 732.03125 C 1248.789062 733.144531 1247.75 734.101562 1246.628906 734.847656 C 1244.359375 736.347656 1241.691406 736.957031 1239.210938 736.75 C 1241.660156 736.289062 1243.839844 735.039062 1245.328125 733.324219 C 1246.820312 731.628906 1247.628906 729.460938 1247.761719 727.410156 L 1251.671875 728.285156 "/>
<path fill-rule="nonzero" fill="rgb(13.719177%, 12.156677%, 12.547302%)" fill-opacity="1" d="M 1263.28125 728.175781 C 1262.039062 730.746094 1260.238281 732.949219 1258.101562 734.597656 C 1255.960938 736.25 1253.5 737.335938 1251 737.820312 C 1253.289062 736.703125 1255.25 735.082031 1256.691406 733.175781 C 1258.148438 731.273438 1259.089844 729.082031 1259.5 726.875 L 1263.28125 728.175781 "/>
<path fill-rule="nonzero" fill="rgb(13.719177%, 12.156677%, 12.547302%)" fill-opacity="1" d="M 1744.609375 899.851562 C 1718.050781 898.789062 1690.480469 897.898438 1666.019531 908.300781 C 1661.671875 910.160156 1657.410156 912.359375 1653 914 C 1650.660156 914.871094 1648.269531 915.578125 1645.800781 916 C 1640.46875 916.898438 1635 916.371094 1629.648438 917.109375 C 1613.800781 919.300781 1600.160156 932.390625 1584.199219 931.148438 C 1578.75 930.71875 1531.308594 909.988281 1519.089844 894.28125 C 1502.558594 873.050781 1501.679688 843.96875 1501.5 817.070312 C 1501.230469 775.519531 1500.96875 733.988281 1500.699219 692.441406 C 1500.691406 690.199219 1500.671875 687.949219 1500.660156 685.710938 C 1500.589844 674.890625 1500.511719 663.988281 1498.488281 653.351562 C 1497.050781 645.78125 1494.460938 638.089844 1489.019531 632.628906 C 1478.039062 621.609375 1460.261719 623.230469 1444.710938 622.890625 C 1420.558594 622.371094 1396.601562 615.089844 1376.238281 602.078125 C 1360.308594 591.910156 1340.558594 584.371094 1327.800781 570.429688 C 1313.699219 593.691406 1299.101562 601.839844 1288.089844 604.878906 C 1272.539062 609.171875 1243.769531 608.871094 1224.398438 614.429688 C 1221.359375 615.300781 1215.921875 617.078125 1212.570312 622.101562 C 1209.601562 626.558594 1209.601562 631.578125 1209.859375 634.429688 C 1211.25 645.730469 1212.640625 657.039062 1214.039062 668.339844 C 1208.519531 668.691406 1198.890625 668.539062 1188.308594 664.070312 C 1182.859375 661.769531 1177.761719 658.570312 1175.25 656.21875 C 1164.101562 645.78125 1167.179688 617.410156 1183.238281 587.5 C 1179.339844 583.261719 1174.191406 576.640625 1170.460938 567.511719 C 1157.019531 534.640625 1175.550781 502.859375 1176.96875 501.160156 C 1192.339844 482.738281 1215.109375 472.410156 1237.351562 463.421875 C 1288.21875 442.859375 1313.558594 432.339844 1348.871094 428.070312 C 1348.871094 428.070312 1384.109375 423.808594 1455.519531 432.648438 C 1461.488281 433.390625 1467.730469 435.058594 1475.53125 436.820312 C 1485.410156 439.050781 1494.308594 444.269531 1503.03125 449.421875 C 1508.121094 452.421875 1513.199219 455.421875 1518.289062 458.421875 C 1527.828125 464.050781 1537.429688 469.71875 1545.699219 477.089844 C 1552.070312 482.769531 1557.578125 489.421875 1561.980469 496.730469 C 1567.910156 506.589844 1571.78125 517.519531 1576.089844 528.179688 C 1584.039062 547.828125 1593.621094 566.800781 1604.730469 584.851562 C 1616.089844 603.339844 1628.269531 619.609375 1640.480469 637.550781 C 1654.78125 658.550781 1663.859375 683.070312 1666.679688 708.320312 C 1669.570312 734.121094 1666.199219 761.308594 1676.398438 785.191406 C 1685.410156 806.261719 1703.699219 821.609375 1719.160156 838.539062 C 1734.609375 855.460938 1748.320312 877.230469 1744.609375 899.851562 "/>
<path fill-rule="nonzero" fill="rgb(8.616638%, 7.835388%, 7.835388%)" fill-opacity="1" d="M 1653 914 C 1650.660156 914.871094 1648.269531 915.578125 1645.800781 916 C 1640.46875 916.898438 1635 916.371094 1629.648438 917.109375 C 1613.800781 919.300781 1600.160156 932.390625 1584.199219 931.148438 C 1578.75 930.71875 1531.308594 909.988281 1519.089844 894.28125 C 1502.558594 873.050781 1501.679688 843.96875 1501.5 817.070312 C 1501.230469 775.519531 1500.96875 733.988281 1500.699219 692.441406 C 1529.03125 668.238281 1562.671875 653.171875 1579.011719 680.808594 C 1595.621094 708.910156 1578.5 741.761719 1571.28125 769.589844 C 1563.261719 800.550781 1567.53125 833.070312 1587.269531 858.980469 C 1603.941406 880.851562 1628.710938 894.71875 1650.269531 911.789062 C 1651.179688 912.511719 1652.089844 913.25 1653 914 "/>
<path fill-rule="nonzero" fill="rgb(74.414062%, 11.767578%, 17.651367%)" fill-opacity="1" d="M 1302 842 C 1308.480469 844.480469 1319.640625 847.675781 1333.289062 846.144531 C 1361.988281 842.917969 1378.5 821.382812 1381.710938 817 C 1373.019531 823.414062 1358.75 832.269531 1339.289062 837.570312 C 1324.460938 841.609375 1311.441406 842.269531 1302 842 "/>
<path fill-rule="nonzero" fill="rgb(94.53125%, 94.921875%, 94.921875%)" fill-opacity="1" d="M 1496.140625 613.859375 C 1496.140625 613.859375 1455 641.21875 1461.859375 698.253906 C 1468.710938 755.285156 1489.320312 767.285156 1516.710938 758.714844 L 1516.710938 608.628906 L 1496.140625 613.859375 "/>
<path fill="none" stroke-width="10" stroke-linecap="butt" stroke-linejoin="miter" stroke="rgb(100%, 74.021912%, 65.039062%)" stroke-opacity="1" stroke-miterlimit="10" d="M 14961.40625 10701.40625 C 14961.40625 10701.40625 14550 10427.8125 14618.59375 9857.460938 C 14687.109375 9287.148438 14893.203125 9167.148438 15167.109375 9252.851562 L 15167.109375 10753.710938 Z M 14961.40625 10701.40625 " transform="matrix(0.1, 0, 0, -0.1, 0, 1684)"/>
<path fill-rule="nonzero" fill="rgb(94.53125%, 35.301208%, 16.088867%)" fill-opacity="1" d="M 1562.140625 595 C 1542.140625 601 1522.140625 607 1502.140625 613 C 1475 677.75 1473.011719 733.636719 1498.191406 752.082031 C 1502.5 755.242188 1508.410156 757.882812 1516.710938 758.714844 C 1524.789062 757.554688 1549.710938 752.910156 1568.101562 731.523438 C 1587.109375 709.425781 1587.039062 683.53125 1587 668.710938 C 1586.910156 632.578125 1570.25 606.171875 1562.140625 595 "/>
<path fill-rule="nonzero" fill="rgb(100%, 100%, 100%)" fill-opacity="1" d="M 1516.710938 604.429688 C 1516.710938 604.429688 1495.628906 410.710938 1288.78125 443.28125 C 1288.78125 443.28125 1312.289062 427.859375 1351.5 430.429688 C 1390.710938 433 1498.710938 429.570312 1562.140625 595 L 1516.710938 608.628906 L 1516.710938 604.429688 "/>
<path fill-rule="nonzero" fill="rgb(74.414062%, 11.767578%, 17.651367%)" fill-opacity="1" d="M 1578.75 930.722656 C 1578.75 930.722656 1465.679688 1041.570312 1328.980469 959.285156 L 1336.429688 932.800781 C 1336.429688 932.800781 1464.859375 998.40625 1553.570312 906.847656 L 1578.75 930.722656 "/>
<path fill-rule="nonzero" fill="rgb(62.693787%, 88.671875%, 97.65625%)" fill-opacity="1" d="M 1254.75 1483.050781 L 792.179688 1462.328125 L 992.523438 1381.289062 L 1428.378906 1413.429688 L 1254.75 1483.050781 "/>
<g clip-path="url(#clip-0)">
<g clip-path="url(#clip-1)">
<g clip-path="url(#clip-2)">
<path fill-rule="nonzero" fill="url(#linear-pattern-0)" d="M 723.234375 1233.949219 L 879.738281 1480.324219 L 1104.953125 1337.261719 L 948.453125 1090.886719 Z M 723.234375 1233.949219 "/>
</g>
</g>
</g>
<path fill-rule="nonzero" fill="rgb(100%, 74.021912%, 65.039062%)" fill-opacity="1" d="M 910.714844 1295.289062 C 906.546875 1287.101562 902.125 1284.460938 898.734375 1283.628906 C 892.28125 1282.039062 887.308594 1286.449219 879.429688 1284.570312 C 878.566406 1284.371094 876.5 1283.878906 874.4375 1284.761719 C 873.296875 1285.261719 872.265625 1286.46875 870.855469 1289.289062 C 867.855469 1295.289062 868.285156 1309.859375 861.429688 1313.710938 C 854.570312 1317.570312 838.714844 1322.78125 839.570312 1330.25 C 840.429688 1337.710938 843 1348 843 1348 C 843 1348 839.933594 1360.859375 839.539062 1366 C 839.144531 1371.140625 843 1386.140625 843 1386.140625 C 843 1386.140625 839.765625 1398.890625 841.285156 1405 C 842.808594 1411.109375 841.605469 1421.058594 863.300781 1427.601562 C 885 1434.140625 882.277344 1438.578125 897.472656 1436.019531 C 912.667969 1433.46875 933.429688 1419.570312 933.429688 1419.570312 C 933.429688 1419.570312 952.75 1417.859375 956.375 1417.429688 C 960 1417 965.144531 1408.429688 965.144531 1408.429688 C 965.144531 1408.429688 979.714844 1417.859375 982.285156 1414.429688 C 984.855469 1411 970.714844 1382.289062 970.714844 1382.289062 C 970.714844 1382.289062 992.339844 1388.289062 982.597656 1365.140625 C 972.855469 1342 955.109375 1338.949219 943.195312 1335.550781 C 943.195312 1335.550781 942.316406 1334.960938 941.285156 1334.230469 C 928.554688 1325.238281 916.636719 1305.769531 910.714844 1295.289062 "/>
<path fill-rule="nonzero" fill="rgb(89.84375%, 61.521912%, 53.709412%)" fill-opacity="1" d="M 878.570312 1321.859375 C 883.902344 1329.789062 889.574219 1337.441406 895.871094 1344.441406 C 899.054688 1347.898438 902.347656 1351.238281 905.980469 1354.101562 C 907.78125 1355.550781 909.652344 1356.878906 911.605469 1358.03125 C 913.550781 1359.199219 915.585938 1360.171875 917.6875 1360.808594 C 918.203125 1361.011719 918.734375 1361.128906 919.261719 1361.269531 L 920.054688 1361.46875 L 920.9375 1361.679688 L 924.492188 1362.5 C 926.828125 1363.140625 929.171875 1363.75 931.460938 1364.511719 C 936.039062 1366.03125 940.578125 1367.621094 944.992188 1369.511719 C 953.851562 1373.199219 962.480469 1377.390625 970.714844 1382.289062 C 961.765625 1378.898438 952.855469 1375.53125 943.886719 1372.429688 C 939.394531 1370.910156 934.902344 1369.410156 930.363281 1368.128906 C 929.222656 1367.828125 928.101562 1367.46875 926.964844 1367.179688 L 923.554688 1366.300781 L 920.128906 1365.550781 L 919.265625 1365.359375 L 918.320312 1365.128906 C 917.691406 1364.980469 917.058594 1364.839844 916.457031 1364.621094 C 914.007812 1363.828125 911.726562 1362.691406 909.597656 1361.378906 C 907.472656 1360.070312 905.4375 1358.628906 903.582031 1357.019531 C 899.855469 1353.800781 896.496094 1350.261719 893.503906 1346.460938 C 887.488281 1338.878906 882.464844 1330.609375 878.570312 1321.859375 "/>
<path fill-rule="nonzero" fill="rgb(89.84375%, 61.521912%, 53.709412%)" fill-opacity="1" d="M 852.714844 1354.140625 C 855.132812 1355.300781 857.328125 1356.839844 859.574219 1358.269531 C 861.8125 1359.71875 864.007812 1361.230469 866.222656 1362.710938 C 870.613281 1365.71875 874.992188 1368.75 879.332031 1371.808594 L 892.367188 1380.980469 C 896.707031 1384.03125 901.039062 1387.089844 905.441406 1390.011719 C 907.628906 1391.480469 909.824219 1392.949219 912.050781 1394.308594 C 913.160156 1395 914.28125 1395.671875 915.402344 1396.269531 C 916.515625 1396.898438 917.667969 1397.429688 918.6875 1397.820312 C 918.917969 1397.878906 919.097656 1397.949219 919.371094 1398.019531 L 920.355469 1398.191406 L 922.320312 1398.53125 L 926.253906 1399.230469 C 928.878906 1399.679688 931.492188 1400.171875 934.109375 1400.679688 C 939.339844 1401.679688 944.558594 1402.761719 949.761719 1403.949219 C 952.355469 1404.570312 954.957031 1405.171875 957.535156 1405.929688 C 960.101562 1406.71875 962.613281 1407.558594 965.144531 1408.429688 C 962.515625 1408 959.886719 1407.46875 957.28125 1407.011719 C 954.675781 1406.578125 952.042969 1406.21875 949.40625 1405.878906 L 933.605469 1403.761719 C 930.96875 1403.421875 928.335938 1403.070312 925.703125 1402.691406 L 921.757812 1402.128906 L 919.78125 1401.859375 L 918.792969 1401.71875 C 918.417969 1401.660156 917.957031 1401.539062 917.546875 1401.429688 C 916.058594 1400.949219 914.796875 1400.328125 913.582031 1399.679688 C 912.351562 1399.039062 911.1875 1398.351562 910.023438 1397.660156 C 907.695312 1396.269531 905.445312 1394.808594 903.214844 1393.328125 C 898.792969 1390.300781 894.4375 1387.21875 890.15625 1384.039062 C 885.898438 1380.828125 881.636719 1377.628906 877.476562 1374.300781 C 873.285156 1371.019531 869.164062 1367.648438 865.046875 1364.269531 L 858.917969 1359.148438 L 855.855469 1356.589844 C 854.824219 1355.761719 853.84375 1354.839844 852.714844 1354.140625 "/>
<path fill-rule="nonzero" fill="rgb(89.84375%, 61.521912%, 53.709412%)" fill-opacity="1" d="M 845.285156 1391.570312 C 852.648438 1394.480469 859.839844 1397.710938 866.980469 1401.03125 C 870.570312 1402.660156 874.09375 1404.410156 877.65625 1406.070312 L 888.265625 1411.210938 C 891.769531 1412.921875 895.34375 1414.699219 898.808594 1416.160156 L 899.980469 1416.609375 C 900.394531 1416.710938 900.804688 1416.789062 901.234375 1416.878906 C 902.15625 1417.019531 903.085938 1417.148438 904.050781 1417.238281 C 905.964844 1417.441406 907.917969 1417.589844 909.867188 1417.761719 C 917.679688 1418.328125 925.550781 1418.789062 933.429688 1419.570312 C 925.558594 1420.449219 917.671875 1420.871094 909.746094 1420.878906 C 907.761719 1420.878906 905.777344 1420.871094 903.769531 1420.738281 C 902.769531 1420.691406 901.742188 1420.601562 900.710938 1420.488281 C 900.175781 1420.410156 899.609375 1420.320312 899.066406 1420.210938 L 897.449219 1419.699219 C 893.609375 1418.210938 890.117188 1416.488281 886.519531 1414.800781 C 882.980469 1413.039062 879.457031 1411.28125 875.960938 1409.449219 C 872.484375 1407.578125 868.992188 1405.761719 865.566406 1403.800781 C 858.683594 1399.960938 851.882812 1395.949219 845.285156 1391.570312 "/>
<path fill-rule="nonzero" fill="rgb(6.665039%, 6.272888%, 6.272888%)" fill-opacity="1" d="M 982.757812 1407.148438 L 999 1419.589844 L 994.933594 1399.410156 Z M 982.757812 1407.148438 "/>
<path fill-rule="nonzero" fill="rgb(95.701599%, 68.554688%, 61.521912%)" fill-opacity="1" d="M 924.644531 1288.761719 C 937.234375 1280.039062 952.445312 1277.328125 962.570312 1283.289062 C 977.363281 1291.988281 983.15625 1320.269531 965.144531 1343.800781 C 953.429688 1350.328125 939.863281 1349.679688 931.714844 1342.429688 C 921.539062 1333.378906 923.972656 1317.78125 924.644531 1313.480469 C 925.773438 1306.21875 928.707031 1300.738281 930.855469 1297.429688 L 924.644531 1288.761719 "/>
<path fill-rule="nonzero" fill="rgb(50.193787%, 50.976562%, 52.146912%)" fill-opacity="1" d="M 1253.820312 1499.230469 L 792.179688 1481.289062 L 792.179688 1462.328125 L 1254.75 1483.050781 L 1253.820312 1499.230469 "/>
<path fill-rule="nonzero" fill="rgb(42.747498%, 43.138123%, 44.309998%)" fill-opacity="1" d="M 1428.378906 1413.429688 C 1428.378906 1413.429688 1430.140625 1424.710938 1419.289062 1429.859375 C 1408.429688 1435 1253.820312 1499.230469 1253.820312 1499.230469 L 1254.75 1483.050781 L 1428.378906 1413.429688 "/>
<path fill-rule="nonzero" fill="rgb(100%, 74.021912%, 65.039062%)" fill-opacity="1" d="M 1564.429688 1344.140625 C 1562.710938 1342.429688 1518.140625 1320.140625 1505 1304.710938 C 1491.859375 1289.289062 1479.289062 1281.859375 1453.570312 1291 C 1427.859375 1300.140625 1367.289062 1321.488281 1365.570312 1330.25 C 1363.859375 1339 1354.710938 1386.429688 1365.570312 1395 C 1376.429688 1403.570312 1395.199219 1410.988281 1399.179688 1411.28125 C 1403.160156 1411.570312 1410.140625 1408.429688 1410.140625 1408.429688 C 1410.140625 1408.429688 1415.859375 1407 1423.289062 1408.429688 C 1430.710938 1409.859375 1441.570312 1413.578125 1447.289062 1413.429688 C 1453 1413.289062 1453.429688 1413.539062 1451.859375 1408.429688 C 1450.289062 1403.320312 1450.289062 1403.320312 1450.289062 1403.320312 C 1450.289062 1403.320312 1491.421875 1422.679688 1506.730469 1415.589844 C 1522.03125 1408.5 1527.859375 1404.140625 1537.570312 1395 C 1547.289062 1385.859375 1569 1347.570312 1569 1347.570312 L 1564.429688 1344.140625 "/>
<path fill="none" stroke-width="40" stroke-linecap="butt" stroke-linejoin="miter" stroke="rgb(89.84375%, 61.521912%, 53.709412%)" stroke-opacity="1" stroke-miterlimit="10" d="M 14558.59375 3537.5 C 14535.703125 3547.109375 14158.59375 3415.703125 14112.890625 3364.296875 C 14067.109375 3312.890625 14072.890625 3141.40625 14112.890625 3027.109375 C 14152.890625 2912.890625 14121.992188 2751.40625 14162.890625 2755.703125 C 14162.890625 2755.703125 14011.484375 2842.382812 13963.203125 2845.898438 C 13914.804688 2849.414062 13895.703125 3147.109375 13907.109375 3255.703125 C 13918.59375 3364.296875 13844.296875 3404.296875 13907.109375 3537.5 C 13970 3670.78125 14444.296875 3758.59375 14444.296875 3758.59375 " transform="matrix(0.1, 0, 0, -0.1, 0, 1684)"/>
<path fill-rule="nonzero" fill="rgb(94.921875%, 66.601562%, 59.179688%)" fill-opacity="1" d="M 1529 1393.859375 C 1529 1393.859375 1517.601562 1384.710938 1506.730469 1385.289062 C 1495.859375 1385.859375 1493.75 1392.140625 1482.519531 1381.289062 C 1471.289062 1370.429688 1464.671875 1361.859375 1464.671875 1361.859375 C 1464.671875 1361.859375 1441.570312 1368.710938 1439.289062 1371 C 1437 1373.289062 1438.929688 1392.789062 1441.890625 1397.859375 C 1444.839844 1402.921875 1489.609375 1420.21875 1500.730469 1417.039062 C 1511.859375 1413.859375 1529 1402.558594 1529 1402.558594 L 1529 1393.859375 "/>
<path fill="none" stroke-width="40" stroke-linecap="butt" stroke-linejoin="miter" stroke="rgb(61.914062%, 30.200195%, 48.242188%)" stroke-opacity="1" stroke-miterlimit="10" d="M 10348.398438 4092.5 C 10286.796875 4217.8125 10217.695312 4341.796875 10119.6875 4441.210938 C 10013.710938 4548.90625 9875.195312 4624.21875 9727.1875 4654.882812 C 9641.875 4672.5 9554.101562 4675.585938 9467.070312 4671.914062 C 9394.0625 4668.789062 9321.210938 4661.09375 9249.21875 4648.710938 " transform="matrix(0.1, 0, 0, -0.1, 0, 1684)"/>
<path fill-rule="nonzero" fill="rgb(84.764099%, 19.604492%, 27.43988%)" fill-opacity="1" d="M 753 1409.5 L 549 1361.859375 L 355.285156 1371.839844 L 257.570312 1405.578125 L 475.285156 1441.210938 L 753 1409.5 "/>
<path fill-rule="nonzero" fill="rgb(74.414062%, 11.767578%, 17.651367%)" fill-opacity="1" d="M 475.285156 1441.210938 L 753 1409.5 C 753 1409.5 785.570312 1438.429688 753 1488.140625 L 475.285156 1520.710938 L 475.285156 1441.210938 "/>
<path fill-rule="nonzero" fill="rgb(94.53125%, 94.921875%, 94.921875%)" fill-opacity="1" d="M 257.570312 1405.578125 L 475.285156 1441.210938 L 475.285156 1520.710938 L 257.570312 1488.140625 L 257.570312 1405.578125 "/>
<path fill-rule="nonzero" fill="rgb(90.234375%, 90.625%, 91.014099%)" fill-opacity="1" d="M 314.144531 1382.289062 C 336.453125 1391.730469 365.335938 1401.539062 399.855469 1407.570312 C 425.550781 1412.058594 448.765625 1413.480469 468.429688 1413.429688 C 473.570312 1396.238281 478.714844 1379.050781 483.855469 1361.859375 L 327.855469 1330.25 C 327.855469 1330.25 314.144531 1355.289062 314.144531 1382.289062 "/>
<path fill-rule="nonzero" fill="rgb(10.594177%, 45.872498%, 73.631287%)" fill-opacity="1" d="M 483.855469 1361.859375 L 693 1330.25 C 693 1330.25 698.144531 1380.710938 686.144531 1391.570312 C 674.144531 1402.429688 468.429688 1413.429688 468.429688 1413.429688 L 483.855469 1361.859375 "/>
<path fill-rule="nonzero" fill="rgb(18.821716%, 57.617188%, 83.984375%)" fill-opacity="1" d="M 327.855469 1330.25 L 483.855469 1361.859375 L 693 1330.25 L 550.714844 1287.011719 L 327.855469 1330.25 "/>
<path fill-rule="nonzero" fill="rgb(57.617188%, 58.396912%, 59.568787%)" fill-opacity="1" d="M 1792.589844 1407.570312 L 1348.589844 1471.570312 L 1631.621094 1506.839844 L 1933.160156 1453.691406 L 1792.589844 1407.570312 "/>
<path fill-rule="nonzero" fill="rgb(42.747498%, 43.138123%, 44.309998%)" fill-opacity="1" d="M 2257.160156 991.570312 L 2198.871094 1492.148438 L 1628.011719 1536.71875 L 1636.148438 1469.261719 L 1694.871094 982.730469 L 2233.179688 991.191406 L 2257.160156 991.570312 "/>
<path fill-rule="nonzero" fill="rgb(34.521484%, 34.910583%, 35.693359%)" fill-opacity="1" d="M 1348.589844 1471.570312 L 1631.621094 1506.839844 L 1628.011719 1536.71875 L 1348.589844 1491.289062 L 1348.589844 1471.570312 "/>
<path fill-rule="nonzero" fill="rgb(34.521484%, 34.910583%, 35.693359%)" fill-opacity="1" d="M 2198.871094 1492.148438 L 1628.011719 1536.71875 L 1636.148438 1469.261719 C 1734.261719 1427.511719 1861.890625 1361.390625 1994.140625 1256.710938 C 2110.691406 1164.46875 2196.511719 1069.460938 2257.160156 991.570312 C 2237.730469 1158.429688 2218.300781 1325.289062 2198.871094 1492.148438 "/>
<path fill-rule="nonzero" fill="rgb(94.53125%, 94.921875%, 94.921875%)" fill-opacity="1" d="M 1942.589844 1261.710938 C 1942.589844 1288.089844 1963.96875 1309.46875 1990.339844 1309.46875 C 2016.71875 1309.46875 2038.101562 1288.089844 2038.101562 1261.710938 C 2038.101562 1235.339844 2016.71875 1213.949219 1990.339844 1213.949219 C 1963.96875 1213.949219 1942.589844 1235.339844 1942.589844 1261.710938 "/>
<path fill-rule="nonzero" fill="rgb(74.414062%, 11.767578%, 17.651367%)" fill-opacity="1" d="M 1944.230469 466 C 1952.898438 454.230469 1973.101562 442.390625 1985.089844 450.148438 C 1993.839844 455.820312 1994.21875 469.351562 1994.238281 472.730469 C 2003.390625 467.5 2015.96875 470.519531 2022.800781 478.539062 C 2032.578125 490.019531 2027.800781 506.558594 2027.21875 508.371094 C 2020.660156 528.808594 1991.851562 542.019531 1955.339844 542.140625 C 1935.289062 514.640625 1930.941406 484.019531 1944.230469 466 "/>
<path fill-rule="nonzero" fill="rgb(100%, 100%, 100%)" fill-opacity="1" d="M 1679.578125 620.929688 C 1701.878906 618.808594 1724.359375 621.070312 1746.46875 620 C 1752 619.769531 1757.5 619.289062 1762.941406 618.53125 C 1768.390625 617.828125 1773.699219 616.671875 1778.910156 615.089844 C 1789.300781 611.921875 1799.261719 607.199219 1807.71875 600.621094 C 1816.148438 594.078125 1823 585.558594 1826.480469 575.761719 C 1826.710938 575.160156 1826.921875 574.539062 1827.089844 573.921875 C 1827.269531 573.300781 1827.488281 572.691406 1827.628906 572.050781 L 1828.089844 570.171875 C 1828.21875 569.589844 1828.300781 569.078125 1828.339844 568.550781 C 1828.441406 567.488281 1828.371094 566.480469 1828.148438 565.480469 C 1827.929688 564.488281 1827.539062 563.5 1826.96875 562.390625 C 1826 560.511719 1824.5 558.738281 1822.621094 557.261719 C 1820.75 555.769531 1818.578125 554.519531 1816.269531 553.5 C 1811.640625 551.460938 1806.519531 550.261719 1801.339844 549.789062 C 1796.160156 549.351562 1790.910156 549.660156 1785.851562 550.730469 C 1780.820312 551.859375 1775.960938 553.699219 1771.710938 556.460938 C 1767.480469 559.191406 1763.78125 562.808594 1760.671875 566.949219 C 1757.589844 571.089844 1755.101562 575.699219 1753.449219 580.53125 C 1751.851562 585.359375 1751.191406 590.429688 1751.878906 595.160156 L 1752.25 596.898438 C 1752.328125 597.179688 1752.351562 597.480469 1752.460938 597.761719 L 1752.75 598.578125 C 1752.960938 599.128906 1753.109375 599.699219 1753.351562 600.230469 L 1754.140625 601.800781 C 1754.371094 602.339844 1754.730469 602.828125 1755.058594 603.320312 C 1755.398438 603.820312 1755.710938 604.328125 1756.070312 604.808594 L 1757.261719 606.21875 L 1757.839844 606.921875 L 1758.519531 607.570312 C 1762.039062 611.109375 1766.460938 613.941406 1771.179688 616.289062 C 1775.910156 618.621094 1780.980469 620.421875 1786.179688 621.828125 C 1791.378906 623.230469 1796.710938 624.269531 1802.101562 624.941406 C 1807.5 625.609375 1812.941406 625.941406 1818.398438 626.03125 C 1823.851562 626.078125 1829.320312 625.839844 1834.761719 625.351562 C 1840.199219 624.808594 1845.609375 623.96875 1850.980469 622.878906 C 1856.320312 621.710938 1861.609375 620.308594 1866.808594 618.601562 C 1877.179688 615.121094 1887.179688 610.421875 1896.238281 604.230469 C 1905.371094 598.148438 1913.480469 590.53125 1920.570312 582.050781 C 1924.121094 577.808594 1927.378906 573.300781 1930.351562 568.601562 C 1933.351562 563.921875 1936.050781 559.039062 1938.5 554.019531 C 1936.421875 559.199219 1934.070312 564.289062 1931.390625 569.21875 C 1928.691406 574.128906 1925.671875 578.878906 1922.320312 583.421875 C 1915.621094 592.46875 1907.628906 600.648438 1898.511719 607.429688 C 1889.398438 614.230469 1879.191406 619.511719 1868.558594 623.539062 C 1863.238281 625.558594 1857.761719 627.140625 1852.238281 628.519531 C 1846.699219 629.808594 1841.101562 630.828125 1835.449219 631.558594 C 1829.789062 632.21875 1824.109375 632.640625 1818.398438 632.738281 C 1812.691406 632.769531 1806.980469 632.5 1801.289062 631.910156 C 1795.589844 631.300781 1789.929688 630.289062 1784.328125 628.878906 C 1778.730469 627.46875 1773.199219 625.621094 1767.878906 623.109375 C 1762.558594 620.601562 1757.449219 617.359375 1753.039062 613.019531 L 1752.210938 612.210938 L 1751.449219 611.320312 L 1749.929688 609.53125 C 1749.449219 608.910156 1749.019531 608.230469 1748.570312 607.570312 C 1748.121094 606.910156 1747.660156 606.261719 1747.320312 605.519531 L 1746.21875 603.359375 C 1745.890625 602.628906 1745.648438 601.851562 1745.371094 601.089844 L 1744.96875 599.941406 C 1744.828125 599.558594 1744.78125 599.160156 1744.679688 598.769531 L 1744.160156 596.410156 C 1743.191406 590.078125 1744.070312 583.800781 1745.941406 578.050781 C 1747.859375 572.300781 1750.710938 566.96875 1754.28125 562.148438 C 1757.890625 557.390625 1762.300781 553.078125 1767.46875 549.789062 C 1772.621094 546.5 1778.371094 544.359375 1784.21875 543.101562 C 1790.101562 541.878906 1796.101562 541.570312 1802.039062 542.109375 C 1807.960938 542.679688 1813.859375 544.050781 1819.398438 546.621094 C 1822.171875 547.910156 1824.851562 549.5 1827.320312 551.519531 C 1829.769531 553.539062 1831.988281 556.101562 1833.519531 559.21875 C 1834.199219 560.609375 1834.839844 562.238281 1835.191406 563.980469 C 1835.550781 565.710938 1835.628906 567.511719 1835.441406 569.230469 C 1835.359375 570.089844 1835.199219 570.960938 1835.011719 571.738281 L 1834.449219 573.910156 C 1834.269531 574.628906 1834 575.339844 1833.789062 576.050781 C 1833.570312 576.769531 1833.320312 577.46875 1833.050781 578.171875 C 1832.019531 580.96875 1830.71875 583.671875 1829.230469 586.238281 C 1827.730469 588.808594 1826.078125 591.28125 1824.199219 593.558594 C 1822.328125 595.839844 1820.328125 598 1818.199219 600 C 1816.050781 601.988281 1813.800781 603.851562 1811.460938 605.578125 C 1802.058594 612.441406 1791.390625 617.210938 1780.328125 620.109375 C 1774.800781 621.558594 1769.128906 622.570312 1763.480469 623.070312 C 1757.839844 623.628906 1752.191406 623.929688 1746.558594 623.898438 C 1724.019531 623.890625 1701.941406 620.578125 1679.578125 620.929688 "/>
<path fill-rule="nonzero" fill="rgb(100%, 100%, 100%)" fill-opacity="1" d="M 1666.941406 463.699219 C 1666.941406 471.828125 1659.410156 478.429688 1650.109375 478.429688 C 1640.820312 478.429688 1633.289062 471.828125 1633.289062 463.699219 C 1633.289062 455.558594 1640.820312 448.960938 1650.109375 448.960938 C 1659.410156 448.960938 1666.941406 455.558594 1666.941406 463.699219 "/>
<path fill-rule="nonzero" fill="rgb(100%, 100%, 100%)" fill-opacity="1" d="M 1655.789062 460.671875 C 1656.109375 449.640625 1655.53125 438.421875 1654.96875 427.148438 C 1654.421875 415.878906 1653.820312 404.519531 1654.128906 393.128906 L 1654.191406 390.980469 L 1656.171875 391.25 L 1701.421875 397.410156 L 1655.820312 394.960938 L 1657.859375 393.089844 C 1658.429688 404.261719 1659.890625 415.390625 1661.320312 426.589844 C 1662.738281 437.78125 1664.21875 449.050781 1664.789062 460.578125 L 1655.789062 460.671875 "/>
<path fill-rule="nonzero" fill="rgb(100%, 100%, 100%)" fill-opacity="1" d="M 1656.339844 405.839844 L 1695.28125 413.359375 L 1655.648438 411.808594 Z M 1656.339844 405.839844 "/>
<path fill-rule="nonzero" fill="rgb(100%, 100%, 100%)" fill-opacity="1" d="M 1785.621094 421.039062 C 1785.621094 429.171875 1778.089844 435.769531 1768.789062 435.769531 C 1759.5 435.769531 1751.96875 429.171875 1751.96875 421.039062 C 1751.96875 412.898438 1759.5 406.308594 1768.789062 406.308594 C 1778.089844 406.308594 1785.621094 412.898438 1785.621094 421.039062 "/>
<path fill-rule="nonzero" fill="rgb(100%, 100%, 100%)" fill-opacity="1" d="M 1774.46875 418.011719 C 1774.789062 406.980469 1774.210938 395.761719 1773.660156 384.488281 C 1773.101562 373.21875 1772.5 361.859375 1772.808594 350.46875 L 1772.871094 348.320312 L 1774.851562 348.589844 L 1820.101562 354.738281 L 1774.5 352.308594 L 1776.539062 350.429688 C 1777.109375 361.601562 1778.570312 372.730469 1780 383.929688 C 1781.421875 395.121094 1782.898438 406.390625 1783.46875 417.921875 L 1774.46875 418.011719 "/>
<path fill-rule="nonzero" fill="rgb(100%, 100%, 100%)" fill-opacity="1" d="M 1775.019531 363.179688 L 1813.960938 370.699219 L 1774.328125 369.140625 Z M 1775.019531 363.179688 "/>
<path fill-rule="nonzero" fill="rgb(61.914062%, 12.156677%, 38.818359%)" fill-opacity="1" d="M 2195.089844 1648.78125 L 2099.660156 1648.78125 C 2077.019531 1648.78125 2058.660156 1630.429688 2058.660156 1607.78125 L 2058.660156 1517.148438 L 2236.089844 1517.148438 L 2236.089844 1607.78125 C 2236.089844 1630.429688 2217.730469 1648.78125 2195.089844 1648.78125 "/>
<path fill-rule="nonzero" fill="rgb(22.363281%, 70.896912%, 29.026794%)" fill-opacity="1" d="M 2249.570312 1505.960938 C 2240.148438 1503.078125 2229.441406 1504.851562 2221.449219 1510.601562 C 2218.929688 1512.421875 2216.640625 1514.628906 2213.808594 1515.910156 C 2211.03125 1517.171875 2207.929688 1517.460938 2204.890625 1517.710938 C 2181.648438 1519.660156 2146.921875 1524.839844 2118.101562 1521.71875 C 2105.769531 1520.390625 2094.53125 1517.539062 2085.738281 1512.261719 C 2071.789062 1503.890625 2064.78125 1492.308594 2047.179688 1488.078125 C 2038.910156 1486.078125 2003.550781 1482.210938 1998.820312 1492.871094 C 2000.128906 1489.921875 2001.679688 1487.078125 2003.441406 1484.390625 C 2016.628906 1464.160156 2041.550781 1451.75 2065.679688 1454.339844 C 2093.03125 1457.289062 2117.238281 1479.289062 2122.800781 1506.21875 C 2122.730469 1503.878906 2122.699219 1501.539062 2122.699219 1499.179688 C 2122.640625 1460.828125 2130.230469 1422.460938 2144.910156 1387.019531 C 2145.449219 1385.730469 2145.988281 1384.460938 2146.539062 1383.171875 C 2157.738281 1416.289062 2164.550781 1450.890625 2166.730469 1485.789062 C 2190.019531 1463.660156 2216.828125 1445.21875 2245.828125 1431.410156 C 2232.210938 1451.269531 2219.941406 1472.058594 2209.128906 1493.589844 C 2224.070312 1492.210938 2242.628906 1492.640625 2249.570312 1505.960938 "/>
<path fill="none" stroke-width="40" stroke-linecap="butt" stroke-linejoin="miter" stroke="rgb(0%, 40.795898%, 21.972656%)" stroke-opacity="1" stroke-miterlimit="10" d="M 21799.414062 3548.515625 C 21820.3125 3358.710938 21833.515625 3152.304688 21833.710938 2931.289062 C 21834.21875 2420.117188 21765.390625 1973.085938 21679.414062 1609.296875 " transform="matrix(0.1, 0, 0, -0.1, 0, 1684)"/>
<path fill-rule="nonzero" fill="rgb(95.701599%, 91.796875%, 56.443787%)" fill-opacity="1" d="M 2190.21875 1288.648438 C 2190.21875 1303.121094 2184.441406 1313.511719 2181.871094 1317.578125 C 2179.300781 1313.511719 2173.511719 1303.121094 2173.511719 1288.648438 C 2173.511719 1274.191406 2179.300781 1263.800781 2181.871094 1259.71875 C 2184.441406 1263.800781 2190.21875 1274.191406 2190.21875 1288.648438 "/>
<path fill-rule="nonzero" fill="rgb(95.701599%, 91.796875%, 56.443787%)" fill-opacity="1" d="M 2170.890625 1289.359375 C 2178.121094 1301.878906 2178.300781 1313.769531 2178.121094 1318.589844 C 2173.851562 1316.339844 2163.648438 1310.238281 2156.421875 1297.710938 C 2149.179688 1285.179688 2149 1273.289062 2149.191406 1268.480469 C 2153.449219 1270.730469 2163.660156 1276.828125 2170.890625 1289.359375 "/>
<path fill-rule="nonzero" fill="rgb(95.701599%, 91.796875%, 56.443787%)" fill-opacity="1" d="M 2154.5 1299.628906 C 2167.03125 1306.859375 2173.128906 1317.070312 2175.371094 1321.328125 C 2170.558594 1321.519531 2158.671875 1321.339844 2146.140625 1314.109375 C 2133.609375 1306.871094 2127.511719 1296.671875 2125.269531 1292.398438 C 2130.078125 1292.21875 2141.96875 1292.398438 2154.5 1299.628906 "/>
<path fill-rule="nonzero" fill="rgb(95.701599%, 91.796875%, 56.443787%)" fill-opacity="1" d="M 2145.441406 1316.71875 C 2159.910156 1316.71875 2170.289062 1322.511719 2174.371094 1325.078125 C 2170.289062 1327.648438 2159.910156 1333.441406 2145.441406 1333.441406 C 2130.96875 1333.441406 2120.589844 1327.648438 2116.511719 1325.078125 C 2120.589844 1322.511719 2130.96875 1316.71875 2145.441406 1316.71875 "/>
<path fill-rule="nonzero" fill="rgb(95.701599%, 91.796875%, 56.443787%)" fill-opacity="1" d="M 2146.140625 1336.058594 C 2158.671875 1328.820312 2170.558594 1328.640625 2175.371094 1328.828125 C 2173.128906 1333.089844 2167.03125 1343.300781 2154.5 1350.53125 C 2141.96875 1357.769531 2130.078125 1357.949219 2125.269531 1357.761719 C 2127.511719 1353.5 2133.609375 1343.289062 2146.140625 1336.058594 "/>
<path fill-rule="nonzero" fill="rgb(95.701599%, 91.796875%, 56.443787%)" fill-opacity="1" d="M 2156.421875 1352.449219 C 2163.648438 1339.921875 2173.851562 1333.820312 2178.121094 1331.578125 C 2178.300781 1336.390625 2178.121094 1348.28125 2170.890625 1360.808594 C 2163.660156 1373.339844 2153.449219 1379.441406 2149.191406 1381.679688 C 2149 1376.871094 2149.179688 1364.980469 2156.421875 1352.449219 "/>
<path fill-rule="nonzero" fill="rgb(95.701599%, 91.796875%, 56.443787%)" fill-opacity="1" d="M 2173.511719 1361.511719 C 2173.511719 1347.039062 2179.300781 1336.660156 2181.871094 1332.578125 C 2184.441406 1336.660156 2190.21875 1347.039062 2190.21875 1361.511719 C 2190.21875 1375.980469 2184.441406 1386.359375 2181.871094 1390.441406 C 2179.300781 1386.359375 2173.511719 1375.980469 2173.511719 1361.511719 "/>
<path fill-rule="nonzero" fill="rgb(95.701599%, 91.796875%, 56.443787%)" fill-opacity="1" d="M 2192.839844 1360.808594 C 2185.609375 1348.28125 2185.429688 1336.390625 2185.621094 1331.578125 C 2189.878906 1333.820312 2200.078125 1339.921875 2207.320312 1352.449219 C 2214.550781 1364.980469 2214.730469 1376.871094 2214.550781 1381.679688 C 2210.28125 1379.441406 2200.078125 1373.339844 2192.839844 1360.808594 "/>
<path fill-rule="nonzero" fill="rgb(95.701599%, 91.796875%, 56.443787%)" fill-opacity="1" d="M 2209.238281 1350.53125 C 2196.710938 1343.300781 2190.609375 1333.089844 2188.359375 1328.828125 C 2193.179688 1328.640625 2205.058594 1328.820312 2217.589844 1336.058594 C 2230.121094 1343.289062 2236.21875 1353.5 2238.46875 1357.761719 C 2233.648438 1357.949219 2221.769531 1357.769531 2209.238281 1350.53125 "/>
<path fill-rule="nonzero" fill="rgb(95.701599%, 91.796875%, 56.443787%)" fill-opacity="1" d="M 2218.300781 1333.441406 C 2203.828125 1333.441406 2193.441406 1327.648438 2189.371094 1325.078125 C 2193.441406 1322.511719 2203.828125 1316.71875 2218.300781 1316.71875 C 2232.761719 1316.71875 2243.148438 1322.511719 2247.21875 1325.078125 C 2243.148438 1327.648438 2232.761719 1333.441406 2218.300781 1333.441406 "/>
<path fill-rule="nonzero" fill="rgb(95.701599%, 91.796875%, 56.443787%)" fill-opacity="1" d="M 2217.589844 1314.109375 C 2205.058594 1321.339844 2193.179688 1321.519531 2188.359375 1321.328125 C 2190.609375 1317.070312 2196.710938 1306.859375 2209.238281 1299.628906 C 2221.769531 1292.398438 2233.648438 1292.21875 2238.46875 1292.398438 C 2236.21875 1296.671875 2230.121094 1306.871094 2217.589844 1314.109375 "/>
<path fill-rule="nonzero" fill="rgb(95.701599%, 91.796875%, 56.443787%)" fill-opacity="1" d="M 2207.320312 1297.710938 C 2200.078125 1310.238281 2189.878906 1316.339844 2185.621094 1318.589844 C 2185.429688 1313.769531 2185.609375 1301.878906 2192.839844 1289.359375 C 2200.078125 1276.828125 2210.28125 1270.730469 2214.550781 1268.480469 C 2214.730469 1273.289062 2214.550781 1285.179688 2207.320312 1297.710938 "/>
<path fill-rule="nonzero" fill="rgb(84.764099%, 79.296875%, 41.575623%)" fill-opacity="1" d="M 2195.800781 1325.078125 C 2195.800781 1332.769531 2189.558594 1339.011719 2181.871094 1339.011719 C 2174.171875 1339.011719 2167.941406 1332.769531 2167.941406 1325.078125 C 2167.941406 1317.390625 2174.171875 1311.148438 2181.871094 1311.148438 C 2189.558594 1311.148438 2195.800781 1317.390625 2195.800781 1325.078125 "/>
<path fill-rule="nonzero" fill="rgb(0%, 58.006287%, 26.660156%)" fill-opacity="1" d="M 2199.539062 1458.710938 C 2210.679688 1450.960938 2226.179688 1441.121094 2245.828125 1431.398438 C 2234.53125 1450.921875 2223.21875 1470.441406 2211.921875 1489.960938 C 2207.75 1496.648438 2197.210938 1511.398438 2177.910156 1518.878906 C 2171.191406 1521.480469 2164.949219 1522.621094 2159.808594 1523.070312 C 2153.230469 1522.941406 2146.660156 1522.808594 2140.089844 1522.691406 C 2142.671875 1517.160156 2146.851562 1509.171875 2153.199219 1500.378906 C 2166.640625 1481.789062 2181.28125 1471.421875 2199.539062 1458.710938 "/>
<path fill-rule="nonzero" fill="rgb(0%, 58.006287%, 26.660156%)" fill-opacity="1" d="M 2118.101562 1521.71875 C 2105.769531 1520.390625 2094.53125 1517.539062 2085.738281 1512.261719 C 2071.789062 1503.890625 2064.78125 1492.308594 2047.179688 1488.078125 C 2038.910156 1486.078125 2003.550781 1482.210938 1998.820312 1492.871094 C 2000.128906 1489.921875 2001.679688 1487.078125 2003.441406 1484.390625 C 2005.789062 1483.191406 2008.210938 1482.140625 2010.648438 1481.230469 C 2033.519531 1472.730469 2060.621094 1474.519531 2080.679688 1488.390625 C 2088.46875 1493.378906 2094.78125 1500.539062 2101.710938 1506.578125 C 2107.039062 1511.21875 2114.519531 1515.378906 2118.101562 1521.71875 "/>
<path fill-rule="nonzero" fill="rgb(0%, 58.006287%, 26.660156%)" fill-opacity="1" d="M 2143.171875 1425.171875 C 2142.378906 1457.21875 2141.589844 1489.269531 2140.800781 1521.328125 C 2132.148438 1516.828125 2126.078125 1508.351562 2122.699219 1499.179688 C 2122.640625 1460.828125 2130.230469 1422.460938 2144.910156 1387.019531 C 2147.339844 1396.46875 2143.339844 1418.539062 2143.171875 1425.171875 "/>
</svg>
